<?xml version="1.0" encoding="UTF-8" standalone="no"?>
<svg
   width="135.5"
   height="25.96"
   viewBox="0 0 135.5 25.96"
   version="1.1"
   id="svg544"
   xmlns="http://www.w3.org/2000/svg"
   xmlns:svg="http://www.w3.org/2000/svg">
  <defs
     id="defs548">
    <clipPath
       clipPathUnits="userSpaceOnUse"
       id="clipPath124">
      <path
         d="M 0,300 H 1000 V 0 H 0 Z"
         id="path122" />
    </clipPath>
    <rect
       x="780.16528"
       y="254.54546"
       width="544.3526"
       height="143.25069"
       id="rect531" />
  </defs>
  <path
     fill-rule="nonzero"
     fill="#00d0c1"
     fill-opacity="1"
     d="m 20.874616,6.1576526 -9.075872,9.9529764 2.59321,2.84359 6.765866,-7.419121 c 0,0 1.55578,-2.3270918 -0.283204,-5.3774454"
     id="path32"
     style="stroke-width:0.198224" />
  <path
     fill-rule="nonzero"
     fill="#f65e0a"
     fill-opacity="1"
     d="m 5.2998136,1.8602367 9.0758744,9.9529763 2.59321,-2.8435923 -6.765864,-7.4191224 c 0,0 -2.12145,-1.7068036 -4.9032204,0.3097384"
     id="path34"
     style="stroke-width:0.198224" />
  <path
     fill-rule="nonzero"
     fill="#f65e0a"
     fill-opacity="1"
     d="m 16.988864,23.224068 -9.0766103,-9.952977 -2.5932128,2.843592 6.7658641,7.419121 c 0,0 2.12219,1.706805 4.903959,-0.309736"
     id="path36"
     style="stroke-width:0.198224" />
  <path
     fill-rule="nonzero"
     fill="#00d0c1"
     fill-opacity="1"
     d="M 1.4377266,18.984222 10.513597,9.0312451 7.9203858,6.1876531 1.1545217,13.606776 c 0,0 -1.55577885,2.32628 0.2832049,5.377446"
     id="path38"
     style="stroke-width:0.198224" />
  <path
     fill-rule="nonzero"
     fill="#414141"
     fill-opacity="1"
     d="M 17.755662,22.488642 15.16245,19.64505 17.661013,16.905245 c 0,0 1.815324,2.765752 0.09465,5.583397"
     id="path40"
     style="stroke-width:0.198224" />
  <path
     fill-rule="nonzero"
     fill="#414141"
     fill-opacity="1"
     d="M 20.233522,5.45466 17.640309,8.2982519 15.141006,5.5584467 c 0,0 2.522966,-1.9905945 5.092516,-0.1037867"
     id="path42"
     style="stroke-width:0.198224" />
  <path
     fill-rule="nonzero"
     fill="#414141"
     fill-opacity="1"
     d="M 4.6232292,2.605393 7.2164391,5.448985 4.7178778,8.1887882 c 0,0 -1.815324,-2.7657499 -0.094649,-5.5833952"
     id="path44"
     style="stroke-width:0.198224" />
  <path
     fill-rule="nonzero"
     fill="#414141"
     fill-opacity="1"
     d="m 2.1919542,19.728565 2.5932099,-2.843592 2.4985642,2.739805 c 0,0 -2.5222253,1.990597 -5.0917741,0.103787"
     id="path46"
     style="stroke-width:0.198224" />
  <path
     fill-rule="nonzero"
     fill="#414141"
     fill-opacity="1"
     d="M 11.149516,15.34277 8.6036273,12.551071 11.149516,9.7593727 13.695404,12.551071 Z m 0,0"
     id="path48"
     style="stroke-width:0.198224" />
  <g
     aria-label="Bravura Safe"
     id="text363"
     style="font-weight:bold;font-size:81.9997px;font-family:Kallisto;-inkscape-font-specification:'Kallisto, Bold';fill:#30372b;stroke:#000000;stroke-width:0.11175"
     transform="matrix(0.19435253,0,0,0.23021296,-27.75459,-22.381339)">
    <path
       d="m 309.65881,181.11888 c 13.69395,0 19.35193,-4.91998 19.35193,-15.66194 v -0.738 c 0,-5.90398 -2.132,-10.16796 -6.39598,-12.70995 4.01798,-2.45999 5.98598,-6.47798 5.98598,-11.97196 v -0.82 c -0.246,-10.82396 -5.98598,-15.98994 -19.51593,-15.98994 h -31.73389 c -1.39399,0 -2.04999,0.656 -2.04999,2.04999 v 53.79181 c 0,1.39399 0.656,2.04999 2.04999,2.04999 z m -23.04192,-46.98583 h 21.72992 c 5.65798,0 8.44597,1.558 8.44597,6.23198 v 1.31199 c 0,4.34599 -2.62399,5.82198 -7.46197,5.82198 h -22.71392 z m 0,22.54992 h 23.12392 c 5.08398,0 7.62597,2.04999 7.62597,6.23198 v 1.31199 c 0,4.59199 -2.86999,6.06798 -8.44597,6.06798 h -22.30392 z"
       id="path453" />
    <path
       d="m 360.08866,135.03505 c -5.90398,0 -9.83996,1.80399 -11.88996,5.32998 v -3.27999 c 0,-1.39399 -0.65599,-2.04999 -2.04999,-2.04999 h -6.72397 c -1.394,0 -2.05,0.656 -2.05,2.04999 v 41.98385 c 0,1.39399 0.656,2.04999 2.05,2.04999 h 6.72397 c 1.394,0 2.04999,-0.656 2.04999,-2.04999 v -26.9779 c 0,-5.57598 1.722,-6.96998 6.39598,-6.96998 h 11.80796 c 1.39399,0 2.04999,-0.656 2.04999,-2.04999 v -5.98598 c 0,-1.39399 -0.656,-2.04999 -2.04999,-2.04999 z"
       id="path455" />
    <path
       d="m 392.06855,181.11888 c 6.88797,0 10.33196,-1.88599 12.54595,-5.90398 v 3.85399 c 0,1.39399 0.656,2.04999 2.05,2.04999 h 6.72397 c 1.394,0 2.04999,-0.656 2.04999,-2.04999 V 148.565 c 0,-9.51197 -4.59198,-13.52995 -16.31794,-13.52995 h -23.28791 c -1.394,0 -2.04999,0.656 -2.04999,2.04999 v 5.98598 c 0,1.39399 0.65599,2.04999 2.04999,2.04999 h 23.04191 c 4.26399,0 5.73998,1.066 5.73998,4.34599 0,1.72199 -0.90199,2.70599 -2.62399,2.95199 l -17.21993,1.72199 c -5.57598,0.574 -9.42997,1.80399 -11.56196,3.85399 -2.04999,2.04999 -3.11599,5.41198 -3.11599,10.08596 0,8.69197 5.73998,13.03795 17.21994,13.03795 z m -4.83798,-9.75796 c -4.18199,0 -6.23198,-1.476 -6.23198,-4.34599 0,-3.27999 1.31199,-4.42798 5.57598,-4.83798 l 18.03993,-1.80399 v 3.93598 c 0,5.24798 -1.80399,7.05198 -7.29797,7.05198 z"
       id="path457" />
    <path
       d="m 451.68231,181.11888 c 1.148,0 1.96799,-0.492 2.45999,-1.55799 l 19.51593,-42.14785 c 0.738,-1.55799 0.246,-2.37799 -1.47599,-2.37799 h -7.62598 c -1.06599,0 -1.88599,0.492 -2.37799,1.55799 l -14.92394,33.86588 -15.00595,-33.86588 c -0.492,-1.06599 -1.31199,-1.55799 -2.37799,-1.55799 h -7.46197 c -1.722,0 -2.214,0.82 -1.476,2.37799 l 19.35193,42.14785 c 0.574,1.06599 1.394,1.55799 2.45999,1.55799 z"
       id="path459" />
    <path
       d="m 512.85405,164.06294 c 0,5.57598 -1.722,6.96998 -6.39598,6.96998 h -11.23396 c -5.00198,0 -6.39598,-1.312 -6.39598,-6.96998 v -26.9779 c 0,-1.39399 -0.65599,-2.04999 -2.04999,-2.04999 h -6.72397 c -1.394,0 -2.05,0.656 -2.05,2.04999 v 25.82991 c 0,12.38195 4.42799,18.20393 16.97394,18.20393 h 5.98598 c 5.90398,0 9.83996,-1.80399 11.88996,-5.32998 v 3.27999 c 0,1.39399 0.65599,2.04999 2.04999,2.04999 h 6.72397 c 1.394,0 2.05,-0.656 2.05,-2.04999 v -41.98385 c 0,-1.39399 -0.656,-2.04999 -2.05,-2.04999 h -6.72397 c -1.394,0 -2.04999,0.656 -2.04999,2.04999 z"
       id="path461" />
    <path
       d="m 555.73992,135.03505 c -5.90398,0 -9.83996,1.80399 -11.88996,5.32998 v -3.27999 c 0,-1.39399 -0.65599,-2.04999 -2.04999,-2.04999 H 535.076 c -1.394,0 -2.05,0.656 -2.05,2.04999 v 41.98385 c 0,1.39399 0.656,2.04999 2.05,2.04999 h 6.72397 c 1.394,0 2.04999,-0.656 2.04999,-2.04999 v -26.9779 c 0,-5.57598 1.722,-6.96998 6.39598,-6.96998 h 11.80796 c 1.39399,0 2.04999,-0.656 2.04999,-2.04999 v -5.98598 c 0,-1.39399 -0.656,-2.04999 -2.04999,-2.04999 z"
       id="path463" />
    <path
       d="m 587.71982,181.11888 c 6.88797,0 10.33196,-1.88599 12.54595,-5.90398 v 3.85399 c 0,1.39399 0.656,2.04999 2.04999,2.04999 h 6.72398 c 1.39399,0 2.04999,-0.656 2.04999,-2.04999 V 148.565 c 0,-9.51197 -4.59198,-13.52995 -16.31794,-13.52995 h -23.28791 c -1.394,0 -2.05,0.656 -2.05,2.04999 v 5.98598 c 0,1.39399 0.656,2.04999 2.05,2.04999 h 23.04191 c 4.26399,0 5.73998,1.066 5.73998,4.34599 0,1.72199 -0.90199,2.70599 -2.62399,2.95199 l -17.21994,1.72199 c -5.57598,0.574 -9.42996,1.80399 -11.56195,3.85399 -2.05,2.04999 -3.11599,5.41198 -3.11599,10.08596 0,8.69197 5.73998,13.03795 17.21993,13.03795 z m -4.83799,-9.75796 c -4.18198,0 -6.23197,-1.476 -6.23197,-4.34599 0,-3.27999 1.31199,-4.42798 5.57598,-4.83798 l 18.03993,-1.80399 v 3.93598 c 0,5.24798 -1.80399,7.05198 -7.29797,7.05198 z"
       id="path465" />
    <path
       d="m 675.04949,181.11888 c 14.02195,0 19.67993,-5.65798 19.67993,-17.13794 0,-10.57796 -5.16598,-15.08794 -17.71193,-16.07194 l -18.28594,-1.39399 c -5.65798,-0.41 -7.62597,-1.722 -7.62597,-6.06798 0,-4.83798 2.21399,-6.31398 8.52797,-6.31398 h 14.84195 c 5.24798,0 7.54397,1.88599 7.95397,6.55998 0.082,1.39399 0.81999,2.04999 2.04999,2.04999 h 7.37997 c 1.394,0 2.04999,-0.738 1.968,-2.13199 -0.574,-11.72596 -6.55998,-17.38394 -19.35193,-17.38394 h -15.00595 c -13.85795,0 -19.59793,5.65798 -19.59793,17.13794 0,5.32998 1.312,9.26597 4.01799,11.64396 2.70599,2.37799 7.21597,3.77198 13.61195,4.26398 l 18.28593,1.394 c 5.65798,0.40999 7.62597,1.72199 7.62597,6.23197 0,4.67399 -2.21399,6.31398 -8.44597,6.31398 h -16.07194 c -5.32998,0 -7.62597,-1.88599 -8.03597,-6.55998 -0.082,-1.39399 -0.82,-2.04999 -2.04999,-2.04999 h -7.29797 c -1.394,0 -2.05,0.738 -1.968,2.13199 0.574,11.72596 6.47798,17.38394 19.35193,17.38394 z"
       id="path467" />
    <path
       d="m 722.44531,181.11888 c 6.88798,0 10.33196,-1.88599 12.54596,-5.90398 v 3.85399 c 0,1.39399 0.65599,2.04999 2.04999,2.04999 h 6.72397 c 1.394,0 2.05,-0.656 2.05,-2.04999 V 148.565 c 0,-9.51197 -4.59199,-13.52995 -16.31794,-13.52995 h -23.28792 c -1.39399,0 -2.04999,0.656 -2.04999,2.04999 v 5.98598 c 0,1.39399 0.656,2.04999 2.04999,2.04999 h 23.04192 c 4.26398,0 5.73998,1.066 5.73998,4.34599 0,1.72199 -0.902,2.70599 -2.62399,2.95199 l -17.21994,1.72199 c -5.57598,0.574 -9.42997,1.80399 -11.56196,3.85399 -2.04999,2.04999 -3.11599,5.41198 -3.11599,10.08596 0,8.69197 5.73998,13.03795 17.21994,13.03795 z m -4.83798,-9.75796 c -4.18199,0 -6.23198,-1.476 -6.23198,-4.34599 0,-3.27999 1.312,-4.42798 5.57598,-4.83798 l 18.03994,-1.80399 v 3.93598 c 0,5.24798 -1.804,7.05198 -7.29798,7.05198 z"
       id="path469" />
    <path
       d="m 765.1671,181.11888 c 1.39399,0 2.04999,-0.656 2.04999,-2.04999 v -34.27588 h 12.38196 c 1.39399,0 2.04999,-0.65599 2.04999,-2.04999 v -5.65798 c 0,-1.39399 -0.656,-2.04999 -2.04999,-2.04999 h -12.38196 c 0,-2.70599 0.328,-4.50999 1.066,-5.32998 0.738,-0.902 2.45999,-1.312 5.08398,-1.312 h 6.23198 c 1.39399,0 2.04999,-0.656 2.04999,-2.04999 v -5.41198 c 0,-1.394 -0.656,-2.04999 -2.04999,-2.04999 h -6.23198 c -6.47798,0 -10.98796,1.22999 -13.36595,3.68998 -2.37799,2.378 -3.60799,6.55998 -3.60799,12.46396 h -3.36199 c -1.39399,0 -2.04999,0.656 -2.04999,2.04999 v 5.65798 c 0,1.394 0.656,2.04999 2.04999,2.04999 h 3.44399 v 34.27588 c 0,1.39399 0.656,2.04999 2.04999,2.04999 z"
       id="path471" />
    <path
       d="m 824.61698,181.11888 c 1.39399,0 2.04999,-0.656 2.04999,-2.04999 v -5.98598 c 0,-1.39399 -0.656,-2.04999 -2.04999,-2.04999 h -22.54992 c -5.00198,0 -6.39598,-1.394 -6.39598,-6.96998 v -1.63999 h 32.63588 c 1.394,0 2.05,-0.656 2.05,-2.04999 v -7.37998 c 0,-12.13595 -4.42799,-17.95793 -16.97394,-17.95793 h -11.56196 c -12.54595,0 -16.97394,5.82198 -16.97394,17.95793 v 9.92197 c 0,12.38195 4.26399,18.20393 16.97394,18.20393 z m -28.9459,-29.10989 c 0,-5.57598 1.394,-6.88798 6.39598,-6.88798 h 11.06996 c 5.00198,0 6.39598,1.312 6.39598,6.88798 v 2.13199 h -23.86192 z"
       id="path473" />
  </g>
</svg>
