<?xml version="1.0" encoding="UTF-8" standalone="no"?>
<svg
   width="135.5"
   height="25.96"
   viewBox="0 0 135.5 25.96"
   version="1.1"
   id="svg1027"
   sodipodi:docname="bravura-safe-logo-white.svg"
   inkscape:version="1.2.1 (9c6d41e410, 2022-07-14)"
   xmlns:inkscape="http://www.inkscape.org/namespaces/inkscape"
   xmlns:sodipodi="http://sodipodi.sourceforge.net/DTD/sodipodi-0.dtd"
   xmlns="http://www.w3.org/2000/svg"
   xmlns:svg="http://www.w3.org/2000/svg">
  <defs
     id="defs1031">
    <rect
       x="780.16528"
       y="254.54546"
       width="544.3526"
       height="143.25069"
       id="rect531" />
  </defs>
  <sodipodi:namedview
     id="namedview1029"
     pagecolor="#ffffff"
     bordercolor="#000000"
     borderopacity="0.25"
     inkscape:showpageshadow="2"
     inkscape:pageopacity="0.0"
     inkscape:pagecheckerboard="0"
     inkscape:deskcolor="#d1d1d1"
     showgrid="false"
     inkscape:zoom="8.9298893"
     inkscape:cx="59.855165"
     inkscape:cy="5.5991736"
     inkscape:window-width="1920"
     inkscape:window-height="1009"
     inkscape:window-x="-8"
     inkscape:window-y="-8"
     inkscape:window-maximized="1"
     inkscape:current-layer="g951" />
  <g
     id="g951"
     transform="matrix(0.1902864,0,0,0.17868208,-24.150982,-14.092189)">
    <path
       fill-rule="nonzero"
       fill="#000000"
       fill-opacity="1"
       d="m 296.17187,167.95703 c 5.2461,0 8.71094,-1.18359 8.71094,-6.25781 v -1.35547 c 0,-4.98828 -3.29687,-6.42578 -7.86328,-6.42578 h -23.84766 v 14.03906 z m 0.42579,-23.51172 c 4.39843,0 7.69531,-1.09765 7.69531,-6.0039 v -1.35157 c 0,-5.07812 -3.29688,-6.42968 -8.71094,-6.42968 h -22.41016 v 13.78515 z M 261.5,177.00781 v -55.48047 c 0,-1.35546 0.75781,-2.11328 2.11328,-2.11328 h 32.73047 c 14.29297,0 19.95703,5.58203 20.12891,16.48828 V 136.75 c 0,7.01953 -2.87891,10.31641 -6.17579,12.34766 3.38282,2.03125 6.59766,5.75 6.59766,13.10937 v 0.76172 c 0,10.82422 -5.66797,16.15234 -19.96094,16.15234 h -33.32031 c -1.35547,0 -2.11328,-0.76172 -2.11328,-2.11328"
       id="path2"
       style="fill:#ffffff" />
    <path
       fill-rule="nonzero"
       fill="#000000"
       fill-opacity="1"
       d="m 355.45703,131.58984 c 1.35156,0 2.11328,0.76172 2.11328,2.11328 v 6.17579 c 0,1.35156 -0.76172,2.11328 -2.11328,2.11328 h -12.17969 c -4.5664,0 -6.59765,1.1875 -6.59765,7.1914 v 27.82422 c 0,1.35156 -0.75782,2.11328 -2.11328,2.11328 h -6.9336 c -1.35547,0 -2.11719,-0.76172 -2.11719,-2.11328 v -43.30469 c 0,-1.35156 0.76172,-2.11328 2.11719,-2.11328 h 6.9336 c 1.35546,0 2.11328,0.76172 2.11328,2.11328 v 3.38672 c 2.03125,-3.55468 5.7539,-5.5 12.26562,-5.5 z m 0,0"
       id="path4"
       style="fill:#ffffff" />
    <path
       fill-rule="nonzero"
       fill="#000000"
       fill-opacity="1"
       d="m 387.33984,169.05469 c 5.58203,0 7.52735,-1.85938 7.52735,-7.27344 v -4.05859 l -18.60547,1.86328 c -4.48438,0.42187 -5.75391,1.6914 -5.75391,4.98828 0,3.04297 2.19922,4.48047 6.42969,4.48047 z m -28.07812,-3.37891 c 0,-9.64453 3.63672,-13.19531 15.13672,-14.37891 l 17.76172,-1.77734 c 2.02734,-0.25391 2.70703,-1.26562 2.70703,-3.04297 0,-3.46875 -1.52344,-4.48437 -5.92188,-4.48437 h -23.76562 c -1.35157,0 -2.11328,-0.76172 -2.11328,-2.11328 v -6.17188 c 0,-1.35547 0.76171,-2.11719 2.11328,-2.11719 h 24.01953 c 12.17969,0 16.83203,4.3125 16.83203,13.95703 v 31.46094 c 0,1.35156 -0.76172,2.11328 -2.11719,2.11328 h -6.93359 c -1.35156,0 -2.11328,-0.76172 -2.11328,-2.11328 v -3.97656 c -2.19922,4.05859 -5.58203,6.08984 -12.94141,6.08984 h -4.90625 c -11.33203,0 -17.75781,-3.89062 -17.75781,-13.44531"
       id="path6"
       style="fill:#ffffff" />
    <path
       fill-rule="nonzero"
       fill="#000000"
       fill-opacity="1"
       d="m 430.55469,177.51172 -19.96094,-43.46875 c -0.67578,-1.52344 -0.082,-2.45313 1.52344,-2.45313 h 7.69531 c 1.18359,0 1.94531,0.50782 2.45312,1.60938 l 15.47657,34.92578 15.39453,-34.92578 c 0.5039,-1.10156 1.26562,-1.60938 2.44922,-1.60938 h 7.86718 c 1.60547,0 2.19922,0.92969 1.52344,2.45313 l -20.1289,43.46875 c -0.50782,1.01562 -1.35157,1.60937 -2.53907,1.60937 h -9.21875 c -1.18359,0 -2.02734,-0.59375 -2.53515,-1.60937"
       id="path8"
       style="fill:#ffffff" />
    <path
       fill-rule="nonzero"
       fill="#000000"
       fill-opacity="1"
       d="m 508.61328,131.58984 h 6.93359 c 1.35157,0 2.11329,0.76172 2.11329,2.11328 v 43.30469 c 0,1.35156 -0.76172,2.11328 -2.11329,2.11328 h -6.93359 c -1.35547,0 -2.11719,-0.76172 -2.11719,-2.11328 v -3.38672 c -2.02734,3.55469 -5.75,5.5 -12.26172,5.5 h -6.17187 c -13.53516,0 -17.50781,-6.68359 -17.50781,-18.77343 v -26.64454 c 0,-1.35156 0.76172,-2.11328 2.11328,-2.11328 h 6.9375 c 1.35156,0 2.11328,0.76172 2.11328,2.11328 v 27.82813 c 0,5.91797 1.52344,7.1875 6.59766,7.1875 h 11.58593 c 4.56641,0 6.59375,-1.10156 6.59375,-7.1875 v -27.82813 c 0,-1.35156 0.76172,-2.11328 2.11719,-2.11328"
       id="path10"
       style="fill:#ffffff" />
    <path
       fill-rule="nonzero"
       fill="#000000"
       fill-opacity="1"
       d="m 557.23828,131.58984 c 1.35547,0 2.11328,0.76172 2.11328,2.11328 v 6.17579 c 0,1.35156 -0.75781,2.11328 -2.11328,2.11328 h -12.17969 c -4.5664,0 -6.59375,1.1875 -6.59375,7.1914 v 27.82422 c 0,1.35156 -0.76172,2.11328 -2.11718,2.11328 h -6.9336 c -1.35156,0 -2.11328,-0.76172 -2.11328,-2.11328 v -43.30469 c 0,-1.35156 0.76172,-2.11328 2.11328,-2.11328 h 6.9336 c 1.35546,0 2.11718,0.76172 2.11718,2.11328 v 3.38672 c 2.02735,-3.55468 5.75,-5.5 12.26172,-5.5 z m 0,0"
       id="path12"
       style="fill:#ffffff" />
    <path
       fill-rule="nonzero"
       fill="#000000"
       fill-opacity="1"
       d="m 589.12109,169.05469 c 5.58203,0 7.52735,-1.85938 7.52735,-7.27344 v -4.05859 l -18.60547,1.86328 c -4.48438,0.42187 -5.75,1.6914 -5.75,4.98828 0,3.04297 2.19531,4.48047 6.42578,4.48047 z m -28.07812,-3.37891 c 0,-9.64453 3.63672,-13.19531 15.13672,-14.37891 l 17.76172,-1.77734 c 2.03125,-0.25391 2.70703,-1.26562 2.70703,-3.04297 0,-3.46875 -1.52344,-4.48437 -5.92188,-4.48437 h -23.76562 c -1.35157,0 -2.11328,-0.76172 -2.11328,-2.11328 v -6.17188 c 0,-1.35547 0.76171,-2.11719 2.11328,-2.11719 h 24.01953 c 12.17969,0 16.83203,4.3125 16.83203,13.95703 v 31.46094 c 0,1.35156 -0.76172,2.11328 -2.11719,2.11328 h -6.93359 c -1.35156,0 -2.11328,-0.76172 -2.11328,-2.11328 v -3.97656 c -2.19922,4.05859 -5.58203,6.08984 -12.94141,6.08984 h -4.90234 c -11.33594,0 -17.76172,-3.89062 -17.76172,-13.44531"
       id="path14"
       style="fill:#ffffff" />
    <text
       xml:space="preserve"
       transform="matrix(0.75,0,0,0.75,57.123967,-85.491736)"
       id="text529"
       style="font-style:normal;font-variant:normal;font-weight:bold;font-stretch:normal;font-size:109.333px;font-family:Kallisto;-inkscape-font-specification:'Kallisto, Bold';font-variant-ligatures:normal;font-variant-caps:normal;font-variant-numeric:normal;font-variant-east-asian:normal;white-space:pre;shape-inside:url(#rect531);display:inline;fill:#ffffff;stroke:#000000"><tspan
         x="780.16602"
         y="355.02195"
         id="tspan488">Safe</tspan></text>
    <path
       fill-rule="nonzero"
       fill="#00d0c1"
       fill-opacity="1"
       d="m 239.17504,117.76101 -47.95093,48.79315 13.69919,13.9398 35.74605,-36.37392 c 0,0 8.21875,-11.40423 -1.49431,-26.35903"
       id="path134"
       style="stroke-width:0.979415" />
    <path
       fill-rule="nonzero"
       fill="#f65e0a"
       fill-opacity="1"
       d="M 218.53904,131.54257 182.79297,95.172519 c 0,0 -11.20738,-8.366963 -25.90403,1.52057 l 47.95091,48.793141 z m 0,0"
       id="path136"
       style="stroke-width:0.979415" />
    <path
       fill-rule="nonzero"
       fill="#f65e0a"
       fill-opacity="1"
       d="m 156.99133,166.57732 35.74607,36.37006 c 0,0 11.20738,8.36695 25.90404,-1.52056 l -47.95093,-48.79315 z m 0,0"
       id="path138"
       style="stroke-width:0.979415" />
    <path
       fill-rule="nonzero"
       fill="#00d0c1"
       fill-opacity="1"
       d="m 170.73603,117.90765 -35.74605,36.37394 c 0,0 -8.22255,11.40422 1.49432,26.35901 l 47.95091,-48.79315 z m 0,0"
       id="path140"
       style="stroke-width:0.979415" />
    <path
       fill-rule="nonzero"
       fill="#ffffff"
       fill-opacity="1"
       d="m 208.99285,183.88242 13.70297,13.93981 c 9.09106,-13.81245 -0.50064,-27.37403 -0.50064,-27.37403 z m 0,0"
       id="path142"
       style="stroke-width:0.979415" />
    <path
       fill-rule="nonzero"
       fill="#ffffff"
       fill-opacity="1"
       d="m 235.78436,114.31465 c -13.57401,-9.2546 -26.90151,0.50558 -26.90151,0.50558 l 13.20234,13.43423 z m 0,0"
       id="path144"
       style="stroke-width:0.979415" />
    <path
       fill-rule="nonzero"
       fill="#ffffff"
       fill-opacity="1"
       d="m 167.0154,114.28377 -13.69917,-13.93978 c -9.09486,13.8163 0.49684,27.37401 0.49684,27.37401 z m 0,0"
       id="path146"
       style="stroke-width:0.979415" />
    <path
       fill-rule="nonzero"
       fill="#ffffff"
       fill-opacity="1"
       d="m 140.46661,184.29152 c 13.57781,9.25074 26.90531,-0.50557 26.90531,-0.50557 l -13.20234,-13.4381 z m 0,0"
       id="path148"
       style="stroke-width:0.979415" />
    <path
       fill-rule="nonzero"
       fill="#ffffff"
       fill-opacity="1"
       d="M 187.79173,162.78748 201.2406,149.1024 187.79173,135.41732 174.34288,149.1024 Z m 0,0"
       id="path150"
       style="stroke-width:0.979415" />
  </g>
</svg>
