<?xml version="1.0" encoding="UTF-8" standalone="no"?>
<svg
   width="135.5"
   height="25.96"
   viewBox="0 0 135.5 25.96"
   version="1.1"
   id="svg1027"
   xmlns="http://www.w3.org/2000/svg"
   xmlns:svg="http://www.w3.org/2000/svg">
  <defs
     id="defs1031">
    <rect
       x="780.16528"
       y="254.54546"
       width="544.3526"
       height="143.25069"
       id="rect531" />
  </defs>
  <g
     id="g951"
     transform="matrix(0.1902864,0,0,0.17868208,-24.150982,-14.092189)">
    <path
       fill-rule="nonzero"
       fill="#00d0c1"
       fill-opacity="1"
       d="m 239.17504,117.76101 -47.95093,48.79315 13.69919,13.9398 35.74605,-36.37392 c 0,0 8.21875,-11.40423 -1.49431,-26.35903"
       id="path134"
       style="stroke-width:0.979415" />
    <path
       fill-rule="nonzero"
       fill="#f65e0a"
       fill-opacity="1"
       d="M 218.53904,131.54257 182.79297,95.172519 c 0,0 -11.20738,-8.366963 -25.90403,1.52057 l 47.95091,48.793141 z m 0,0"
       id="path136"
       style="stroke-width:0.979415" />
    <path
       fill-rule="nonzero"
       fill="#f65e0a"
       fill-opacity="1"
       d="m 156.99133,166.57732 35.74607,36.37006 c 0,0 11.20738,8.36695 25.90404,-1.52056 l -47.95093,-48.79315 z m 0,0"
       id="path138"
       style="stroke-width:0.979415" />
    <path
       fill-rule="nonzero"
       fill="#00d0c1"
       fill-opacity="1"
       d="m 170.73603,117.90765 -35.74605,36.37394 c 0,0 -8.22255,11.40422 1.49432,26.35901 l 47.95091,-48.79315 z m 0,0"
       id="path140"
       style="stroke-width:0.979415" />
    <path
       fill-rule="nonzero"
       fill="#ffffff"
       fill-opacity="1"
       d="m 208.99285,183.88242 13.70297,13.93981 c 9.09106,-13.81245 -0.50064,-27.37403 -0.50064,-27.37403 z m 0,0"
       id="path142"
       style="stroke-width:0.979415" />
    <path
       fill-rule="nonzero"
       fill="#ffffff"
       fill-opacity="1"
       d="m 235.78436,114.31465 c -13.57401,-9.2546 -26.90151,0.50558 -26.90151,0.50558 l 13.20234,13.43423 z m 0,0"
       id="path144"
       style="stroke-width:0.979415" />
    <path
       fill-rule="nonzero"
       fill="#ffffff"
       fill-opacity="1"
       d="m 167.0154,114.28377 -13.69917,-13.93978 c -9.09486,13.8163 0.49684,27.37401 0.49684,27.37401 z m 0,0"
       id="path146"
       style="stroke-width:0.979415" />
    <path
       fill-rule="nonzero"
       fill="#ffffff"
       fill-opacity="1"
       d="m 140.46661,184.29152 c 13.57781,9.25074 26.90531,-0.50557 26.90531,-0.50557 l -13.20234,-13.4381 z m 0,0"
       id="path148"
       style="stroke-width:0.979415" />
    <path
       fill-rule="nonzero"
       fill="#ffffff"
       fill-opacity="1"
       d="M 187.79173,162.78748 201.2406,149.1024 187.79173,135.41732 174.34288,149.1024 Z m 0,0"
       id="path150"
       style="stroke-width:0.979415" />
    <g
       aria-label="Bravura Safe"
       id="text651"
       style="font-weight:bold;font-size:81.9997px;font-family:Kallisto;-inkscape-font-specification:'Kallisto, Bold';fill:#ffffff;stroke:#000000;stroke-width:0.11175"
       transform="matrix(1.0304925,0,0,1.0051323,-28.209226,-2.9828257)">
      <g
         id="path684">
        <path
           style="color:#000000;-inkscape-font-specification:'Kallisto, Bold';stroke:none;-inkscape-stroke:none"
           d="m 315.55691,181.11888 c 13.69395,0 19.35193,-4.91998 19.35193,-15.66194 v -0.738 c 0,-5.90398 -2.132,-10.16796 -6.39598,-12.70995 4.01799,-2.45999 5.98598,-6.47798 5.98598,-11.97196 v -0.82 c -0.246,-10.82396 -5.98598,-15.98994 -19.51593,-15.98994 h -31.73389 c -1.39399,0 -2.04999,0.656 -2.04999,2.04999 v 53.79181 c 0,1.39399 0.656,2.04999 2.04999,2.04999 z m -23.04192,-46.98583 h 21.72992 c 5.65798,0 8.44597,1.558 8.44597,6.23198 v 1.31199 c 0,4.34599 -2.62399,5.82198 -7.46197,5.82198 h -22.71392 z m 0,22.54992 h 23.12392 c 5.08398,0 7.62597,2.04999 7.62597,6.23198 v 1.31199 c 0,4.59199 -2.86999,6.06798 -8.44597,6.06798 h -22.30392 z"
           id="path311" />
        <path
           style="color:#000000;-inkscape-font-specification:'Kallisto, Bold';fill:#000000;stroke:none;-inkscape-stroke:none"
           d="m 283.24805,123.17188 c -0.70576,0 -1.23412,0.16576 -1.58594,0.51757 -0.35182,0.35182 -0.51953,0.88213 -0.51953,1.58789 v 53.79102 c 0,0.70576 0.16771,1.23607 0.51953,1.58789 0.35182,0.35182 0.88018,0.51758 1.58594,0.51758 h 32.30859 c 6.85366,0 11.70633,-1.2293 14.84766,-3.81446 3.14133,-2.58515 4.56054,-6.52155 4.56054,-11.90234 v -0.73828 c 0,-5.8854 -2.12891,-10.15224 -6.36328,-12.70898 3.98939,-2.47352 5.95313,-6.4957 5.95313,-11.97266 v -0.82031 -0.002 c -0.12322,-5.42164 -1.62531,-9.43704 -4.79688,-12.09375 -3.17157,-2.6567 -8.00331,-3.94921 -14.77539,-3.94921 z m 0,0.11132 h 31.73437 c 6.75786,0 11.56073,1.28961 14.70313,3.92188 3.1424,2.63227 4.63503,6.61136 4.75781,12.01367 v 0.81836 c 0,5.48063 -1.95718,9.47374 -5.95899,11.92383 l -0.0801,0.0488 0.0801,0.0469 c 4.24741,2.53211 6.36915,6.77159 6.36915,12.66211 v 0.73828 c 0,5.36117 -1.41035,9.25609 -4.52149,11.81641 -3.11114,2.56031 -7.93511,3.78906 -14.77539,3.78906 h -32.30859 c -0.68823,0 -1.18314,-0.16165 -1.50782,-0.48633 -0.32468,-0.32468 -0.48437,-0.81958 -0.48437,-1.50781 v -53.79102 c 0,-0.68823 0.15969,-1.18313 0.48437,-1.50781 0.32468,-0.32468 0.81959,-0.48633 1.50782,-0.48633 z m 9.21093,10.79492 v 0.0547 13.42188 h 22.76954 c 2.42467,0 4.30197,-0.36762 5.57812,-1.29102 1.27615,-0.92339 1.93945,-2.4017 1.93945,-4.58594 v -1.3125 c 0,-2.34809 -0.70493,-3.92934 -2.125,-4.91406 -1.42006,-0.98471 -3.54283,-1.37305 -6.37695,-1.37305 z m 0.11133,0.11133 h 21.67383 c 2.82386,0 4.92603,0.39074 6.31445,1.35352 1.38843,0.96278 2.07618,2.49639 2.07618,4.82226 v 1.3125 c 0,2.16175 -0.64725,3.59305 -1.89258,4.49414 -1.24534,0.9011 -3.10037,1.27149 -5.51367,1.27149 h -22.65821 z m -0.11133,22.4375 v 0.0566 13.66797 h 22.35938 c 2.79292,0 4.91545,-0.36876 6.3457,-1.32226 1.43025,-0.9535 2.15625,-2.4951 2.15625,-4.80274 v -1.3125 c 0,-2.10231 -0.64057,-3.67974 -1.92578,-4.72656 -1.2852,-1.04682 -3.20636,-1.56055 -5.75586,-1.56055 z m 0.11133,0.11133 h 23.06836 c 2.53448,0 4.42681,0.51149 5.6836,1.53516 1.25678,1.02367 1.88671,2.56095 1.88671,4.64062 v 1.3125 c 0,2.28435 -0.70868,3.7765 -2.10742,4.70899 -1.39874,0.93249 -3.50014,1.30273 -6.2832,1.30273 h -22.24805 z"
           id="path313" />
      </g>
      <g
         id="path686">
        <path
           style="color:#000000;-inkscape-font-specification:'Kallisto, Bold';stroke:none;-inkscape-stroke:none"
           d="m 365.98676,135.03505 c -5.90398,0 -9.83996,1.80399 -11.88995,5.32998 v -3.27999 c 0,-1.39399 -0.656,-2.04999 -2.05,-2.04999 h -6.72397 c -1.394,0 -2.05,0.656 -2.05,2.04999 v 41.98385 c 0,1.39399 0.656,2.04999 2.05,2.04999 h 6.72397 c 1.394,0 2.05,-0.656 2.05,-2.04999 v -26.9779 c 0,-5.57598 1.72199,-6.96998 6.39597,-6.96998 h 11.80796 c 1.39399,0 2.04999,-0.656 2.04999,-2.04999 v -5.98598 c 0,-1.39399 -0.656,-2.04999 -2.04999,-2.04999 z"
           id="path317" />
        <path
           style="color:#000000;-inkscape-font-specification:'Kallisto, Bold';fill:#000000;stroke:none;-inkscape-stroke:none"
           d="m 345.32227,134.97852 c -0.70577,0 -1.23412,0.16771 -1.58594,0.51953 -0.35182,0.35181 -0.51953,0.88213 -0.51953,1.58789 v 41.98242 c 0,0.70576 0.16771,1.23607 0.51953,1.58789 0.35182,0.35182 0.88017,0.51758 1.58594,0.51758 h 6.7246 c 0.70577,0 1.23608,-0.16576 1.5879,-0.51758 0.35181,-0.35182 0.51757,-0.88213 0.51757,-1.58789 V 152.0918 c 0,-2.78224 0.43106,-4.50821 1.42969,-5.53711 0.99864,-1.0289 2.57872,-1.37696 4.91016,-1.37696 h 11.80859 c 0.70576,0 1.23607,-0.16771 1.58789,-0.51953 0.35182,-0.35181 0.51758,-0.88213 0.51758,-1.58789 v -5.98437 c 0,-0.70576 -0.16576,-1.23608 -0.51758,-1.58789 -0.35182,-0.35182 -0.88213,-0.51953 -1.58789,-0.51953 h -6.31445 c -5.83491,0 -9.74959,1.78148 -11.83399,5.23242 v -3.125 c 0,-0.70576 -0.16576,-1.23608 -0.51757,-1.58789 -0.35182,-0.35182 -0.88213,-0.51953 -1.5879,-0.51953 z m 0,0.11328 h 6.7246 c 0.68824,0 1.18314,0.15969 1.50782,0.48437 0.32468,0.32468 0.48633,0.82154 0.48633,1.50977 v 3.48633 l 0.10351,-0.17969 c 2.03853,-3.50628 5.94921,-5.30078 11.8418,-5.30078 h 6.31445 c 0.68823,0 1.18313,0.15969 1.50781,0.48437 0.32468,0.32468 0.48633,0.82154 0.48633,1.50977 v 5.98437 c 0,0.68823 -0.16165,1.18509 -0.48633,1.50977 -0.32468,0.32468 -0.81958,0.48437 -1.50781,0.48437 h -11.80859 c -2.34255,0 -3.95938,0.35002 -4.99024,1.41211 -1.03085,1.0621 -1.46093,2.8215 -1.46093,5.61524 v 26.97656 c 0,0.68823 -0.16165,1.18313 -0.48633,1.50781 -0.32468,0.32468 -0.81958,0.48633 -1.50782,0.48633 h -6.7246 c -0.68824,0 -1.18314,-0.16165 -1.50782,-0.48633 -0.32468,-0.32468 -0.48633,-0.81958 -0.48633,-1.50781 v -41.98242 c 0,-0.68823 0.16165,-1.18509 0.48633,-1.50977 0.32468,-0.32468 0.81958,-0.48437 1.50782,-0.48437 z"
           id="path319" />
      </g>
      <g
         id="path688">
        <path
           style="color:#000000;-inkscape-font-specification:'Kallisto, Bold';stroke:none;-inkscape-stroke:none"
           d="m 397.96665,181.11888 c 6.88798,0 10.33196,-1.88599 12.54596,-5.90398 v 3.85399 c 0,1.39399 0.65599,2.04999 2.04999,2.04999 h 6.72397 c 1.394,0 2.05,-0.656 2.05,-2.04999 V 148.565 c 0,-9.51197 -4.59199,-13.52995 -16.31794,-13.52995 h -23.28792 c -1.39399,0 -2.04999,0.656 -2.04999,2.04999 v 5.98598 c 0,1.39399 0.656,2.04999 2.04999,2.04999 h 23.04192 c 4.26398,0 5.73998,1.066 5.73998,4.34599 0,1.72199 -0.902,2.70599 -2.62399,2.95199 l -17.21994,1.72199 c -5.57598,0.574 -9.42997,1.80399 -11.56196,3.85399 -2.04999,2.04999 -3.11599,5.41198 -3.11599,10.08596 0,8.69197 5.73998,13.03795 17.21994,13.03795 z m -4.83798,-9.75796 c -4.18199,0 -6.23198,-1.476 -6.23198,-4.34599 0,-3.27999 1.312,-4.42798 5.57598,-4.83798 l 18.03994,-1.80399 v 3.93598 c 0,5.24798 -1.804,7.05198 -7.29798,7.05198 z"
           id="path323" />
        <path
           style="color:#000000;-inkscape-font-specification:'Kallisto, Bold';fill:#000000;stroke:none;-inkscape-stroke:none"
           d="m 381.73047,134.97852 c -0.70576,0 -1.23607,0.16771 -1.58789,0.51953 -0.35182,0.35181 -0.51758,0.88213 -0.51758,1.58789 v 5.98437 c 0,0.70576 0.16576,1.23608 0.51758,1.58789 0.35182,0.35182 0.88213,0.51953 1.58789,0.51953 h 23.04297 c 2.12733,0 3.55067,0.26799 4.43554,0.93164 0.88488,0.66366 1.24805,1.72581 1.24805,3.35743 0,0.85124 -0.22226,1.51209 -0.65234,1.99218 -0.43009,0.4801 -1.07181,0.78258 -1.92383,0.9043 l -17.21875,1.72266 c -5.58145,0.57456 -9.44556,1.80356 -11.59375,3.86914 h -0.002 c -2.06474,2.06474 -3.13086,5.44253 -3.13086,10.125 0,4.35828 1.44189,7.64041 4.32617,9.82422 2.88428,2.18381 7.20219,3.26953 12.94922,3.26953 h 4.75586 c 3.44908,0 6.04138,-0.47028 8.05078,-1.44922 1.95481,-0.95235 3.34177,-2.40612 4.43945,-4.33984 v 3.68359 c 0,0.70576 0.16576,1.23607 0.51758,1.58789 0.35182,0.35182 0.88213,0.51758 1.58789,0.51758 h 6.72461 c 0.70576,0 1.23412,-0.16576 1.58594,-0.51758 0.35182,-0.35182 0.51953,-0.88213 0.51953,-1.58789 v -30.50391 c 0,-4.76497 -1.15202,-8.1685 -3.78125,-10.375 -2.62924,-2.20649 -6.72245,-3.21093 -12.5918,-3.21093 z m 0,0.11328 h 23.28906 c 5.85659,0 9.92129,1.00311 12.51953,3.18359 2.59825,2.18049 3.74219,5.54207 3.74219,10.28906 v 30.50391 c 0,0.68823 -0.16165,1.18313 -0.48633,1.50781 -0.32468,0.32468 -0.81958,0.48633 -1.50781,0.48633 h -6.72461 c -0.68823,0 -1.18313,-0.16165 -1.50781,-0.48633 -0.32468,-0.32468 -0.48633,-0.81958 -0.48633,-1.50781 v -3.85352 l -0.10547,-0.0273 c -1.10287,2.0015 -2.50605,3.46699 -4.49414,4.43555 -1.98809,0.96855 -4.56307,1.43945 -8.00195,1.43945 h -4.75586 c -5.73293,0 -10.02517,-1.08588 -12.88086,-3.24805 -2.8557,-2.16216 -4.28321,-5.40069 -4.28321,-9.73437 0,-4.66548 1.06438,-8.00969 3.09961,-10.04492 2.11602,-2.03381 5.95779,-3.26456 11.52735,-3.83789 l 17.2207,-1.72266 h 0.002 c 0.86997,-0.12428 1.54078,-0.4375 1.99219,-0.94141 0.45142,-0.5039 0.67969,-1.19565 0.67969,-2.0664 0,-1.64838 -0.37385,-2.75793 -1.29297,-3.44727 -0.91912,-0.68934 -2.36531,-0.95508 -4.50195,-0.95508 h -23.04297 c -0.68823,0 -1.18313,-0.15969 -1.50781,-0.48437 -0.32468,-0.32468 -0.48633,-0.82154 -0.48633,-1.50977 v -5.98437 c 0,-0.68823 0.16165,-1.18509 0.48633,-1.50977 0.32468,-0.32468 0.81958,-0.48437 1.50781,-0.48437 z m 28.83789,25.21875 -18.10156,1.81054 c -2.13639,0.20543 -3.54168,0.59394 -4.41797,1.35547 -0.87629,0.76154 -1.20899,1.89162 -1.20899,3.53906 0,1.4483 0.52272,2.55712 1.57227,3.29493 1.04955,0.7378 2.61923,1.10547 4.7168,1.10547 h 10.08593 c 2.75311,0 4.59434,-0.44974 5.74805,-1.57227 1.15371,-1.12253 1.60547,-2.90477 1.60547,-5.53516 z m -0.11133,0.12304 v 3.875 c 0,2.61759 -0.45048,4.36362 -1.57226,5.45508 -1.12179,1.09147 -2.92905,1.54102 -5.66993,1.54102 h -10.08593 c -2.08442,0 -3.63141,-0.36825 -4.65235,-1.08594 -1.02094,-0.71769 -1.52344,-1.78143 -1.52344,-3.20313 0,-1.63254 0.32422,-2.71816 1.16993,-3.45312 0.8457,-0.73496 2.22788,-1.1255 4.35547,-1.33008 z"
           id="path325" />
      </g>
      <g
         id="path690">
        <path
           style="color:#000000;-inkscape-font-specification:'Kallisto, Bold';stroke:none;-inkscape-stroke:none"
           d="m 457.58041,181.11888 c 1.148,0 1.96799,-0.492 2.45999,-1.55799 l 19.51593,-42.14785 c 0.738,-1.55799 0.246,-2.37799 -1.47599,-2.37799 h -7.62597 c -1.066,0 -1.886,0.492 -2.378,1.55799 l -14.92394,33.86588 -15.00595,-33.86588 c -0.492,-1.06599 -1.31199,-1.55799 -2.37799,-1.55799 h -7.46197 c -1.722,0 -2.21399,0.82 -1.476,2.37799 l 19.35193,42.14785 c 0.574,1.06599 1.394,1.55799 2.45999,1.55799 z"
           id="path329" />
        <path
           style="color:#000000;-inkscape-font-specification:'Kallisto, Bold';fill:#000000;stroke:none;-inkscape-stroke:none"
           d="m 428.30664,134.97852 c -0.86987,0 -1.44785,0.20846 -1.70898,0.63281 -0.26114,0.42435 -0.19104,1.03941 0.18164,1.82617 l 19.35351,42.14844 v 0.002 c 0.58113,1.07923 1.42659,1.58594 2.50977,1.58594 h 8.9375 c 1.16396,0 2.01256,-0.50835 2.51172,-1.58985 l 19.51562,-42.14648 v -0.002 c 0.37165,-0.78557 0.4425,-1.40032 0.18164,-1.82422 -0.26113,-0.42435 -0.83912,-0.63281 -1.70898,-0.63281 h -7.625 c -1.08319,0 -1.93053,0.5103 -2.42969,1.59179 l -14.87305,33.75 -14.95507,-33.75 c -0.49916,-1.08149 -1.3465,-1.59179 -2.42969,-1.59179 z m 0,0.11328 h 7.46094 c 1.0488,0 1.84328,0.47491 2.32812,1.52539 l 15.05664,33.98047 14.97461,-33.98047 v -0.002 c 0.48491,-1.04937 1.27985,-1.52343 2.32813,-1.52343 h 7.625 c 0.85212,0 1.38242,0.20297 1.61328,0.57812 0.23086,0.37515 0.17782,0.94753 -0.1875,1.71875 l -19.51563,42.14844 c -0.48484,1.05048 -1.27812,1.52539 -2.41015,1.52539 h -8.9375 c -1.0483,0 -1.84334,-0.47369 -2.41016,-1.52539 v -0.002 l -19.35156,-42.14649 c -0.36532,-0.77122 -0.41836,-1.3436 -0.1875,-1.71875 0.23086,-0.37515 0.76115,-0.57812 1.61328,-0.57812 z"
           id="path331" />
      </g>
      <g
         id="path692">
        <path
           style="color:#000000;-inkscape-font-specification:'Kallisto, Bold';stroke:none;-inkscape-stroke:none"
           d="m 518.75215,164.06294 c 0,5.57598 -1.722,6.96998 -6.39598,6.96998 h -11.23396 c -5.00198,0 -6.39597,-1.312 -6.39597,-6.96998 v -26.9779 c 0,-1.39399 -0.656,-2.04999 -2.05,-2.04999 h -6.72397 c -1.394,0 -2.05,0.656 -2.05,2.04999 v 25.82991 c 0,12.38195 4.42799,18.20393 16.97394,18.20393 h 5.98598 c 5.90398,0 9.83997,-1.80399 11.88996,-5.32998 v 3.27999 c 0,1.39399 0.656,2.04999 2.04999,2.04999 h 6.72398 c 1.39399,0 2.04999,-0.656 2.04999,-2.04999 v -41.98385 c 0,-1.39399 -0.656,-2.04999 -2.04999,-2.04999 h -6.72398 c -1.39399,0 -2.04999,0.656 -2.04999,2.04999 z"
           id="path335" />
        <path
           style="color:#000000;-inkscape-font-specification:'Kallisto, Bold';fill:#000000;stroke:none;-inkscape-stroke:none"
           d="m 485.95312,134.97852 c -0.70576,0 -1.23607,0.16771 -1.58789,0.51953 -0.35181,0.35181 -0.51953,0.88213 -0.51953,1.58789 v 25.82812 c 0,6.19763 1.10808,10.76475 3.79688,13.78321 2.68879,3.01845 6.95276,4.47656 13.23437,4.47656 h 5.98438 c 5.83359,0 9.74922,-1.77912 11.83398,-5.22852 v 3.12305 c 0,0.70576 0.16772,1.23607 0.51953,1.58789 0.35182,0.35182 0.88214,0.51758 1.58789,0.51758 h 6.72266 c 0.70576,0 1.23607,-0.16576 1.58789,-0.51758 0.35182,-0.35182 0.51953,-0.88213 0.51953,-1.58789 v -41.98242 c 0,-0.70576 -0.16771,-1.23608 -0.51953,-1.58789 -0.35182,-0.35182 -0.88213,-0.51953 -1.58789,-0.51953 h -6.72266 c -0.70575,0 -1.23607,0.16771 -1.58789,0.51953 -0.35181,0.35181 -0.51953,0.88213 -0.51953,1.58789 v 26.97656 c 0,2.78224 -0.42909,4.50821 -1.42773,5.53711 -0.99864,1.0289 -2.58068,1.37695 -4.91211,1.37695 h -11.23242 c -2.49611,0 -4.07634,-0.3284 -5.03321,-1.3457 -0.95686,-1.0173 -1.30859,-2.74396 -1.30859,-5.56836 v -26.97656 c 0,-0.70576 -0.16576,-1.23608 -0.51758,-1.58789 -0.35182,-0.35182 -0.88212,-0.51953 -1.58789,-0.51953 z m 0,0.11328 h 6.72266 c 0.68824,0 1.18313,0.15969 1.50781,0.48437 0.32468,0.32468 0.48633,0.82154 0.48633,1.50977 v 26.97656 c 0,2.83358 0.34727,4.59134 1.33789,5.64453 0.99063,1.05319 2.60936,1.38086 5.11524,1.38086 h 11.23242 c 2.34254,0 3.96133,-0.34806 4.99219,-1.41016 1.03085,-1.06209 1.46093,-2.82149 1.46093,-5.61523 v -26.97656 c 0,-0.68823 0.1597,-1.18509 0.48438,-1.50977 0.32468,-0.32468 0.82153,-0.48437 1.50976,-0.48437 h 6.72266 c 0.68823,0 1.18509,0.15969 1.50977,0.48437 0.32468,0.32468 0.48437,0.82154 0.48437,1.50977 v 41.98242 c 0,0.68823 -0.15969,1.18313 -0.48437,1.50781 -0.32468,0.32468 -0.82154,0.48633 -1.50977,0.48633 h -6.72266 c -0.68823,0 -1.18508,-0.16165 -1.50976,-0.48633 -0.32468,-0.32468 -0.48438,-0.81958 -0.48438,-1.50781 v -3.48633 l -0.10547,0.17969 c -2.03853,3.50628 -5.9492,5.30078 -11.84179,5.30078 h -5.98438 c -6.26432,0 -10.4887,-1.45144 -13.15039,-4.43945 -2.66168,-2.98802 -3.76758,-7.52468 -3.76758,-13.70899 v -25.82812 c 0,-0.68823 0.1597,-1.18509 0.48438,-1.50977 0.32468,-0.32468 0.82153,-0.48437 1.50976,-0.48437 z"
           id="path337" />
      </g>
      <g
         id="path694">
        <path
           style="color:#000000;-inkscape-font-specification:'Kallisto, Bold';stroke:none;-inkscape-stroke:none"
           d="m 561.63802,135.03505 c -5.90398,0 -9.83996,1.80399 -11.88995,5.32998 v -3.27999 c 0,-1.39399 -0.656,-2.04999 -2.05,-2.04999 h -6.72397 c -1.394,0 -2.04999,0.656 -2.04999,2.04999 v 41.98385 c 0,1.39399 0.65599,2.04999 2.04999,2.04999 h 6.72397 c 1.394,0 2.05,-0.656 2.05,-2.04999 v -26.9779 c 0,-5.57598 1.72199,-6.96998 6.39597,-6.96998 H 567.952 c 1.39399,0 2.04999,-0.656 2.04999,-2.04999 v -5.98598 c 0,-1.39399 -0.656,-2.04999 -2.04999,-2.04999 z"
           id="path341" />
        <path
           style="color:#000000;-inkscape-font-specification:'Kallisto, Bold';fill:#000000;stroke:none;-inkscape-stroke:none"
           d="m 540.97461,134.97852 c -0.70576,0 -1.23608,0.16771 -1.58789,0.51953 -0.35182,0.35181 -0.51758,0.88213 -0.51758,1.58789 v 41.98242 c 0,0.70576 0.16576,1.23607 0.51758,1.58789 0.35181,0.35182 0.88213,0.51758 1.58789,0.51758 h 6.72266 c 0.70576,0 1.23607,-0.16576 1.58789,-0.51758 0.35181,-0.35182 0.51953,-0.88213 0.51953,-1.58789 V 152.0918 c 0,-2.78224 0.43105,-4.50821 1.42968,-5.53711 0.99864,-1.0289 2.57873,-1.37696 4.91016,-1.37696 h 11.80664 c 0.70576,0 1.23608,-0.16771 1.58789,-0.51953 0.35182,-0.35181 0.51953,-0.88213 0.51953,-1.58789 v -5.98437 c 0,-0.70576 -0.16771,-1.23608 -0.51953,-1.58789 -0.35181,-0.35182 -0.88213,-0.51953 -1.58789,-0.51953 h -6.3125 c -5.83359,0 -9.74922,1.78106 -11.83398,5.23046 v -3.12304 c 0,-0.70576 -0.16772,-1.23608 -0.51953,-1.58789 -0.35182,-0.35182 -0.88213,-0.51953 -1.58789,-0.51953 z m 0,0.11328 h 6.72266 c 0.68823,0 1.18508,0.15969 1.50976,0.48437 0.32468,0.32468 0.48438,0.82154 0.48438,1.50977 v 3.48633 l 0.10546,-0.17969 c 2.03854,-3.50628 5.94921,-5.30078 11.8418,-5.30078 h 6.3125 c 0.68823,0 1.18509,0.15969 1.50977,0.48437 0.32468,0.32468 0.48437,0.82154 0.48437,1.50977 v 5.98437 c 0,0.68823 -0.15969,1.18509 -0.48437,1.50977 -0.32468,0.32468 -0.82154,0.48437 -1.50977,0.48437 h -11.80664 c -2.34254,0 -3.96133,0.35002 -4.99219,1.41211 -1.03085,1.0621 -1.46093,2.8215 -1.46093,5.61524 v 26.97656 c 0,0.68823 -0.1597,1.18313 -0.48438,1.50781 -0.32468,0.32468 -0.82153,0.48633 -1.50976,0.48633 h -6.72266 c -0.68824,0 -1.18313,-0.16165 -1.50781,-0.48633 -0.32468,-0.32468 -0.48633,-0.81958 -0.48633,-1.50781 v -41.98242 c 0,-0.68823 0.16165,-1.18509 0.48633,-1.50977 0.32468,-0.32468 0.81957,-0.48437 1.50781,-0.48437 z"
           id="path343" />
      </g>
      <g
         id="path696">
        <path
           style="color:#000000;-inkscape-font-specification:'Kallisto, Bold';stroke:none;-inkscape-stroke:none"
           d="m 593.61792,181.11888 c 6.88797,0 10.33196,-1.88599 12.54595,-5.90398 v 3.85399 c 0,1.39399 0.656,2.04999 2.05,2.04999 h 6.72397 c 1.394,0 2.04999,-0.656 2.04999,-2.04999 V 148.565 c 0,-9.51197 -4.59198,-13.52995 -16.31794,-13.52995 h -23.28791 c -1.394,0 -2.04999,0.656 -2.04999,2.04999 v 5.98598 c 0,1.39399 0.65599,2.04999 2.04999,2.04999 h 23.04191 c 4.26399,0 5.73998,1.066 5.73998,4.34599 0,1.72199 -0.90199,2.70599 -2.62399,2.95199 l -17.21993,1.72199 c -5.57598,0.574 -9.42997,1.80399 -11.56196,3.85399 -2.04999,2.04999 -3.11599,5.41198 -3.11599,10.08596 0,8.69197 5.73998,13.03795 17.21994,13.03795 z m -4.83798,-9.75796 c -4.18199,0 -6.23198,-1.476 -6.23198,-4.34599 0,-3.27999 1.31199,-4.42798 5.57598,-4.83798 l 18.03993,-1.80399 v 3.93598 c 0,5.24798 -1.80399,7.05198 -7.29797,7.05198 z"
           id="path347" />
        <path
           style="color:#000000;-inkscape-font-specification:'Kallisto, Bold';fill:#000000;stroke:none;-inkscape-stroke:none"
           d="m 577.38281,134.97852 c -0.70576,0 -1.23607,0.16771 -1.58789,0.51953 -0.35181,0.35181 -0.51953,0.88213 -0.51953,1.58789 v 5.98437 c 0,0.70576 0.16772,1.23608 0.51953,1.58789 0.35182,0.35182 0.88213,0.51953 1.58789,0.51953 h 23.04102 c 2.12733,0 3.55067,0.26799 4.43554,0.93164 0.88488,0.66366 1.24805,1.72581 1.24805,3.35743 0,0.85124 -0.22226,1.51209 -0.65234,1.99218 -0.43008,0.4801 -1.0718,0.78258 -1.92383,0.9043 l -17.2168,1.72266 c -5.58145,0.57456 -9.44751,1.80356 -11.5957,3.86914 -2.06474,2.06474 -3.13281,5.44253 -3.13281,10.125 0,4.35828 1.44384,7.64041 4.32812,9.82422 2.88428,2.18381 7.20024,3.26953 12.94727,3.26953 h 4.75586 c 3.44908,0 6.04138,-0.47028 8.05078,-1.44922 1.95481,-0.95235 3.34177,-2.40612 4.43945,-4.33984 v 3.68359 c 0,0.70576 0.16771,1.23607 0.51953,1.58789 0.35182,0.35182 0.88213,0.51758 1.58789,0.51758 h 6.72266 c 0.70576,0 1.23607,-0.16576 1.58789,-0.51758 0.35182,-0.35182 0.51758,-0.88213 0.51758,-1.58789 v -30.50391 c 0,-4.76497 -1.15202,-8.1685 -3.78125,-10.375 -2.62923,-2.20649 -6.72244,-3.21093 -12.5918,-3.21093 z m 0,0.11328 h 23.28711 c 5.85659,0 9.92129,1.00311 12.51953,3.18359 2.59825,2.18049 3.74219,5.54207 3.74219,10.28906 v 30.50391 c 0,0.68823 -0.16165,1.18313 -0.48633,1.50781 -0.32468,0.32468 -0.81958,0.48633 -1.50781,0.48633 h -6.72266 c -0.68823,0 -1.18508,-0.16165 -1.50976,-0.48633 -0.32468,-0.32468 -0.48438,-0.81958 -0.48438,-1.50781 v -3.85352 l -0.10547,-0.0273 c -1.10286,2.0015 -2.508,3.46699 -4.49609,4.43555 -1.98809,0.96855 -4.56307,1.43945 -8.00195,1.43945 h -4.75586 c -5.73293,0 -10.02517,-1.08588 -12.88086,-3.24805 -2.8557,-2.16216 -4.2832,-5.40069 -4.2832,-9.73437 0,-4.66548 1.06437,-8.00969 3.0996,-10.04492 2.11579,-2.03442 5.95881,-3.26446 11.5293,-3.83789 l 17.2207,-1.72266 c 0.86998,-0.12428 1.54078,-0.4375 1.99219,-0.94141 0.45141,-0.5039 0.68164,-1.19565 0.68164,-2.0664 0,-1.64838 -0.3758,-2.75793 -1.29492,-3.44727 -0.91912,-0.68934 -2.3653,-0.95508 -4.50195,-0.95508 h -23.04102 c -0.68823,0 -1.18508,-0.15969 -1.50976,-0.48437 -0.32468,-0.32468 -0.48438,-0.82154 -0.48438,-1.50977 v -5.98437 c 0,-0.68823 0.1597,-1.18509 0.48438,-1.50977 0.32468,-0.32468 0.82153,-0.48437 1.50976,-0.48437 z m 28.83789,25.21875 -18.10156,1.81054 c -2.13639,0.20543 -3.54168,0.59394 -4.41797,1.35547 -0.87629,0.76154 -1.20898,1.89162 -1.20898,3.53906 0,1.4483 0.52271,2.55712 1.57226,3.29493 1.04956,0.7378 2.61728,1.10547 4.71485,1.10547 h 10.08593 c 2.75311,0 4.59435,-0.44974 5.74805,-1.57227 1.15371,-1.12253 1.60742,-2.90477 1.60742,-5.53516 z m -0.11328,0.12304 v 3.875 c 0,2.61759 -0.44853,4.36362 -1.57031,5.45508 -1.12178,1.09147 -2.931,1.54102 -5.67188,1.54102 H 588.7793 c -2.08442,0 -3.63141,-0.36825 -4.65235,-1.08594 -1.02093,-0.71769 -1.52343,-1.78143 -1.52343,-3.20313 0,-1.63254 0.32421,-2.71816 1.16992,-3.45312 0.8457,-0.73496 2.22788,-1.1255 4.35547,-1.33008 z"
           id="path349" />
      </g>
      <g
         id="path698">
        <path
           style="color:#000000;-inkscape-font-specification:'Kallisto, Bold';stroke:none;-inkscape-stroke:none"
           d="m 680.9476,181.11888 c 14.02194,0 19.67992,-5.65798 19.67992,-17.13794 0,-10.57796 -5.16598,-15.08794 -17.71193,-16.07194 l -18.28594,-1.39399 c -5.65798,-0.41 -7.62597,-1.722 -7.62597,-6.06798 0,-4.83798 2.21399,-6.31398 8.52797,-6.31398 h 14.84195 c 5.24798,0 7.54397,1.88599 7.95397,6.55998 0.082,1.39399 0.82,2.04999 2.04999,2.04999 h 7.37997 c 1.394,0 2.05,-0.738 1.968,-2.13199 -0.574,-11.72596 -6.55998,-17.38394 -19.35193,-17.38394 h -15.00595 c -13.85795,0 -19.59793,5.65798 -19.59793,17.13794 0,5.32998 1.312,9.26597 4.01799,11.64396 2.70599,2.37799 7.21597,3.77198 13.61195,4.26398 l 18.28593,1.394 c 5.65798,0.40999 7.62597,1.72199 7.62597,6.23197 0,4.67399 -2.21399,6.31398 -8.44596,6.31398 h -16.07195 c -5.32998,0 -7.62597,-1.88599 -8.03597,-6.55998 -0.082,-1.39399 -0.81999,-2.04999 -2.04999,-2.04999 h -7.29797 c -1.394,0 -2.05,0.738 -1.968,2.13199 0.574,11.72596 6.47798,17.38394 19.35193,17.38394 z"
           id="path353" />
        <path
           style="color:#000000;-inkscape-font-specification:'Kallisto, Bold';fill:#000000;stroke:none;-inkscape-stroke:none"
           d="m 665.36719,123.17188 c -6.93657,0 -11.85151,1.41484 -15.03321,4.27734 -3.1817,2.8625 -4.62109,7.16673 -4.62109,12.91601 0,5.33915 1.31489,9.29329 4.03711,11.68555 2.72098,2.39116 7.24251,3.78488 13.64453,4.27734 l 18.28711,1.39454 c 2.82517,0.20471 4.72118,0.63609 5.9043,1.5664 1.18312,0.93032 1.66992,2.36252 1.66992,4.60938 0,2.32817 -0.54756,3.8835 -1.86328,4.86523 -1.31572,0.98173 -3.41627,1.39258 -6.52735,1.39258 h -16.07226 c -2.6584,0 -4.54923,-0.46982 -5.82617,-1.51367 -1.27655,-1.04353 -1.94981,-2.66476 -2.1543,-4.99219 v -0.002 c -0.0419,-0.70515 -0.25084,-1.2341 -0.61133,-1.58399 -0.36088,-0.35026 -0.86921,-0.51758 -1.49414,-0.51758 h -7.29687 c -0.70686,0 -1.23896,0.18941 -1.58008,0.5625 -0.34112,0.3731 -0.48491,0.92262 -0.44336,1.62891 0.28743,5.87188 1.90945,10.23427 5.08008,13.12695 3.17063,2.89269 7.88101,4.3086 14.32617,4.3086 h 16.1543 c 7.01847,0 11.95493,-1.41476 15.13671,-4.27735 3.18179,-2.86258 4.59961,-7.16686 4.59961,-12.91601 0,-5.29807 -1.29621,-9.08852 -4.16992,-11.67383 -2.8737,-2.5853 -7.31474,-3.96065 -13.59375,-4.45312 l -18.28515,-1.39454 h -0.002 c -2.82517,-0.20472 -4.72108,-0.6367 -5.90429,-1.54687 -1.18322,-0.91017 -1.66993,-2.30029 -1.66993,-4.46484 0,-2.41047 0.54958,-3.9646 1.875,-4.92579 1.32542,-0.96118 3.44503,-1.33203 6.59766,-1.33203 h 14.8418 c 2.61729,0 4.48908,0.46985 5.75586,1.51367 1.26677,1.04383 1.93831,2.66555 2.14257,4.99415 0.0416,0.70629 0.25045,1.23371 0.61133,1.58398 0.36088,0.35027 0.86922,0.51758 1.49414,0.51758 h 7.38086 c 0.70686,0 1.23701,-0.18745 1.57813,-0.56055 0.34112,-0.3731 0.48686,-0.92457 0.44531,-1.63086 -0.28744,-5.87201 -1.93245,-10.23435 -5.11328,-13.12695 -3.18083,-2.8926 -7.89072,-4.30859 -14.29492,-4.30859 z m 0,0.11132 h 15.00586 c 6.38773,0 11.06706,1.41143 14.2207,4.2793 3.15364,2.86787 4.78961,7.19684 5.07617,13.05078 v 0.002 c 0.0404,0.6877 -0.10113,1.20248 -0.41601,1.54688 -0.31488,0.3444 -0.80896,0.52539 -1.4961,0.52539 h -7.38086 c -0.60506,0 -1.0799,-0.1601 -1.41601,-0.48633 -0.33612,-0.32623 -0.53767,-0.82402 -0.57813,-1.51172 v -0.002 c -0.20573,-2.34539 -0.88593,-4.00265 -2.18164,-5.07031 -1.29571,-1.06767 -3.19744,-1.53907 -5.82812,-1.53907 h -14.8418 c -3.16134,0 -5.30399,0.36526 -6.66406,1.35157 -1.36007,0.98631 -1.91992,2.59006 -1.91992,5.01758 0,2.18142 0.49762,3.61986 1.71289,4.55468 1.21526,0.93483 3.13203,1.36309 5.96484,1.56836 l 18.28711,1.39453 c 6.26693,0.49153 10.68158,1.86366 13.52734,4.42383 2.84577,2.56017 4.13282,6.31192 4.13282,11.5918 0,5.73079 -1.41178,9.99564 -4.56446,12.83203 -3.15268,2.83639 -8.0571,4.25 -15.06054,4.25 h -16.1543 c -6.42878,0 -11.10666,-1.41151 -14.25,-4.2793 -3.14334,-2.86778 -4.75836,-7.19671 -5.04492,-13.05078 -0.0405,-0.6877 0.10113,-1.20443 0.41601,-1.54883 0.31488,-0.34439 0.80896,-0.52539 1.4961,-0.52539 h 7.29687 c 0.60507,0 1.08186,0.1601 1.41797,0.48633 0.33611,0.32623 0.53572,0.82402 0.57617,1.51172 v 0.002 c 0.20574,2.34539 0.88732,4.00268 2.19336,5.07032 1.30605,1.06764 3.22686,1.54101 5.89844,1.54101 h 16.07226 c 3.12089,0 5.24449,-0.40925 6.59375,-1.41601 1.34927,-1.00677 1.90821,-2.60927 1.90821,-4.95508 0,-2.26312 -0.49753,-3.74159 -1.71289,-4.69727 -1.21537,-0.95567 -3.13204,-1.38457 -5.96485,-1.58984 L 663.4043,156.2168 c -6.38993,-0.49154 -10.88908,-1.88519 -13.58008,-4.25 -2.68975,-2.36372 -3.99805,-6.28076 -3.99805,-11.60157 0,-5.73066 1.43122,-9.99555 4.58399,-12.83203 3.15277,-2.83647 8.03566,-4.25 14.95703,-4.25 z"
           id="path355" />
      </g>
      <g
         id="path700">
        <path
           style="color:#000000;-inkscape-font-specification:'Kallisto, Bold';stroke:none;-inkscape-stroke:none"
           d="m 728.34341,181.11888 c 6.88798,0 10.33197,-1.88599 12.54596,-5.90398 v 3.85399 c 0,1.39399 0.656,2.04999 2.04999,2.04999 h 6.72398 c 1.39399,0 2.04999,-0.656 2.04999,-2.04999 V 148.565 c 0,-9.51197 -4.59198,-13.52995 -16.31794,-13.52995 h -23.28792 c -1.39399,0 -2.04999,0.656 -2.04999,2.04999 v 5.98598 c 0,1.39399 0.656,2.04999 2.04999,2.04999 h 23.04192 c 4.26398,0 5.73998,1.066 5.73998,4.34599 0,1.72199 -0.902,2.70599 -2.62399,2.95199 l -17.21994,1.72199 c -5.57598,0.574 -9.42997,1.80399 -11.56196,3.85399 -2.04999,2.04999 -3.11599,5.41198 -3.11599,10.08596 0,8.69197 5.73998,13.03795 17.21994,13.03795 z m -4.83798,-9.75796 c -4.18198,0 -6.23198,-1.476 -6.23198,-4.34599 0,-3.27999 1.312,-4.42798 5.57598,-4.83798 l 18.03994,-1.80399 v 3.93598 c 0,5.24798 -1.804,7.05198 -7.29798,7.05198 z"
           id="path359" />
        <path
           style="color:#000000;-inkscape-font-specification:'Kallisto, Bold';fill:#000000;stroke:none;-inkscape-stroke:none"
           d="m 712.10742,134.97852 c -0.70576,0 -1.23607,0.16771 -1.58789,0.51953 -0.35182,0.35181 -0.51758,0.88213 -0.51758,1.58789 v 5.98437 c 0,0.70576 0.16576,1.23608 0.51758,1.58789 0.35182,0.35182 0.88213,0.51953 1.58789,0.51953 h 23.04102 c 2.12733,0 3.55067,0.26799 4.43554,0.93164 0.88488,0.66366 1.25,1.72581 1.25,3.35743 0,0.85124 -0.22226,1.51209 -0.65234,1.99218 -0.43008,0.4801 -1.07181,0.78258 -1.92383,0.9043 l -17.21875,1.72266 c -5.58145,0.57456 -9.44556,1.80356 -11.59375,3.86914 h -0.002 c -2.06474,2.06474 -3.13086,5.44253 -3.13086,10.125 0,4.35828 1.44189,7.64041 4.32617,9.82422 2.88428,2.18381 7.2022,3.26953 12.94922,3.26953 h 4.75586 c 3.44909,0 6.04138,-0.47028 8.05078,-1.44922 1.95566,-0.95276 3.34156,-2.40681 4.43945,-4.3418 v 3.68555 c 0,0.70576 0.16577,1.23607 0.51758,1.58789 0.35182,0.35182 0.88213,0.51758 1.58789,0.51758 h 6.72461 c 0.70576,0 1.23412,-0.16576 1.58594,-0.51758 0.35182,-0.35182 0.51953,-0.88213 0.51953,-1.58789 v -30.50391 c 0,-4.76497 -1.15202,-8.1685 -3.78125,-10.375 -2.62923,-2.20649 -6.72439,-3.21093 -12.59375,-3.21093 z m 0,0.11328 h 23.28711 c 5.85659,0 9.92324,1.00311 12.52149,3.18359 2.59824,2.18049 3.74218,5.54207 3.74218,10.28906 v 30.50391 c 0,0.68823 -0.16165,1.18313 -0.48633,1.50781 -0.32467,0.32468 -0.81958,0.48633 -1.50781,0.48633 h -6.72461 c -0.68823,0 -1.18313,-0.16165 -1.50781,-0.48633 -0.32468,-0.32468 -0.48633,-0.81958 -0.48633,-1.50781 v -3.85352 l -0.10547,-0.0273 c -1.10286,2.0015 -2.508,3.46699 -4.49609,4.43555 -1.98809,0.96855 -4.56111,1.43945 -8,1.43945 h -4.75586 c -5.73292,0 -10.02516,-1.08588 -12.88086,-3.24805 -2.85569,-2.16216 -4.2832,-5.40069 -4.2832,-9.73437 0,-4.66548 1.06437,-8.00969 3.09961,-10.04492 2.11601,-2.03381 5.95778,-3.26456 11.52734,-3.83789 l 17.2207,-1.72266 h 0.002 c 0.86996,-0.12428 1.54077,-0.4375 1.99218,-0.94141 0.45142,-0.5039 0.67969,-1.19565 0.67969,-2.0664 0,-1.64838 -0.37385,-2.75793 -1.29297,-3.44727 -0.91911,-0.68934 -2.36726,-0.95508 -4.5039,-0.95508 h -23.04102 c -0.68823,0 -1.18313,-0.15969 -1.50781,-0.48437 -0.32468,-0.32468 -0.48633,-0.82154 -0.48633,-1.50977 v -5.98437 c 0,-0.68823 0.16165,-1.18509 0.48633,-1.50977 0.32468,-0.32468 0.81958,-0.48437 1.50781,-0.48437 z m 28.83789,25.21875 -18.10156,1.81054 c -2.13639,0.20543 -3.54168,0.59394 -4.41797,1.35547 -0.87629,0.76154 -1.20898,1.89162 -1.20898,3.53906 0,1.4483 0.52271,2.55712 1.57226,3.29493 1.04956,0.7378 2.61924,1.10547 4.7168,1.10547 h 10.08594 c 2.7531,0 4.59434,-0.44974 5.74804,-1.57227 1.15371,-1.12253 1.60547,-2.90477 1.60547,-5.53516 z m -0.11133,0.12304 v 3.875 c 0,2.61759 -0.45048,4.36362 -1.57226,5.45508 -1.12179,1.09147 -2.92905,1.54102 -5.66992,1.54102 h -10.08594 c -2.08441,0 -3.63141,-0.36825 -4.65234,-1.08594 -1.02094,-0.71769 -1.52344,-1.78144 -1.52344,-3.20313 0,-1.63254 0.32422,-2.71816 1.16992,-3.45312 0.8457,-0.73496 2.22788,-1.1255 4.35547,-1.33008 z"
           id="path361" />
      </g>
      <g
         id="path702">
        <path
           style="color:#000000;-inkscape-font-specification:'Kallisto, Bold';stroke:none;-inkscape-stroke:none"
           d="m 771.0652,181.11888 c 1.394,0 2.04999,-0.656 2.04999,-2.04999 v -34.27588 h 12.38196 c 1.39399,0 2.04999,-0.65599 2.04999,-2.04999 v -5.65798 c 0,-1.39399 -0.656,-2.04999 -2.04999,-2.04999 h -12.38196 c 0,-2.70599 0.328,-4.50999 1.066,-5.32998 0.738,-0.902 2.45999,-1.312 5.08398,-1.312 h 6.23198 c 1.39399,0 2.04999,-0.656 2.04999,-2.04999 v -5.41198 c 0,-1.394 -0.656,-2.04999 -2.04999,-2.04999 h -6.23198 c -6.47797,0 -10.98796,1.22999 -13.36595,3.68998 -2.37799,2.378 -3.60799,6.55998 -3.60799,12.46396 h -3.36198 c -1.394,0 -2.05,0.656 -2.05,2.04999 v 5.65798 c 0,1.394 0.656,2.04999 2.05,2.04999 h 3.44398 v 34.27588 c 0,1.39399 0.656,2.04999 2.05,2.04999 z"
           id="path365" />
        <path
           style="color:#000000;-inkscape-font-specification:'Kallisto, Bold';fill:#000000;stroke:none;-inkscape-stroke:none"
           d="m 779.26562,118.82617 c -6.48503,0 -11.01019,1.22835 -13.40625,3.70703 -2.38538,2.38627 -3.61069,6.56661 -3.61914,12.44532 h -3.31054 c -0.70577,0 -1.23607,0.16771 -1.58789,0.51953 -0.35182,0.35181 -0.51758,0.88213 -0.51758,1.58789 v 5.65625 c 0,0.70576 0.16576,1.23607 0.51758,1.58789 0.35182,0.35181 0.88212,0.51953 1.58789,0.51953 h 3.38672 v 34.21875 c 0,0.70576 0.16771,1.23607 0.51953,1.58789 0.35182,0.35182 0.88212,0.51758 1.58789,0.51758 h 6.64062 c 0.70577,0 1.23608,-0.16576 1.58789,-0.51758 0.35182,-0.35182 0.51953,-0.88213 0.51953,-1.58789 v -34.21875 h 12.32618 c 0.70576,0 1.23412,-0.16772 1.58593,-0.51953 0.35182,-0.35182 0.51954,-0.88213 0.51954,-1.58789 v -5.65625 c 0,-0.70576 -0.16772,-1.23608 -0.51954,-1.58789 -0.35181,-0.35182 -0.88017,-0.51953 -1.58593,-0.51953 h -12.32227 c 0.006,-2.66359 0.33666,-4.44721 1.04688,-5.23633 l 0.002,-0.002 c 0.71628,-0.87545 2.42285,-1.29101 5.04101,-1.29101 h 6.23243 c 0.70576,0 1.23412,-0.16772 1.58593,-0.51953 0.35182,-0.35182 0.51954,-0.88018 0.51954,-1.58594 v -5.41211 c 0,-0.70576 -0.16772,-1.23607 -0.51954,-1.58789 -0.35181,-0.35182 -0.88017,-0.51758 -1.58593,-0.51758 z m 0,0.11133 h 6.23243 c 0.68823,0 1.18313,0.16165 1.50781,0.48633 0.32468,0.32468 0.48633,0.81958 0.48633,1.50781 v 5.41211 c 0,0.68823 -0.16165,1.18313 -0.48633,1.50781 -0.32468,0.32468 -0.81958,0.48633 -1.50781,0.48633 h -6.23243 c -2.62816,0 -4.36453,0.40277 -5.125,1.33008 -0.75975,0.84416 -1.08203,2.65668 -1.08203,5.36719 v 0.0566 h 12.43946 c 0.68823,0 1.18313,0.15969 1.50781,0.48437 0.32468,0.32468 0.48633,0.82154 0.48633,1.50977 v 5.65625 c 0,0.68823 -0.16165,1.18508 -0.48633,1.50976 -0.32468,0.32468 -0.81958,0.48438 -1.50781,0.48438 h -12.43946 v 34.33203 c 0,0.68823 -0.15969,1.18313 -0.48437,1.50781 -0.32468,0.32468 -0.82153,0.48633 -1.50977,0.48633 h -6.64062 c -0.68824,0 -1.18509,-0.16165 -1.50977,-0.48633 -0.32468,-0.32468 -0.48437,-0.81958 -0.48437,-1.50781 v -34.33203 h -3.5 c -0.68824,0 -1.18313,-0.1597 -1.50782,-0.48438 -0.32468,-0.32468 -0.48632,-0.82153 -0.48632,-1.50976 v -5.65625 c 0,-0.68823 0.16164,-1.18509 0.48632,-1.50977 0.32469,-0.32468 0.81958,-0.48437 1.50782,-0.48437 h 3.41797 v -0.0566 c 0,-5.89622 1.23015,-10.06218 3.59179,-12.42383 v -0.002 c 2.35992,-2.4413 6.85528,-3.67188 13.32617,-3.67188 z"
           id="path367" />
      </g>
      <g
         id="path704">
        <path
           style="color:#000000;-inkscape-font-specification:'Kallisto, Bold';stroke:none;-inkscape-stroke:none"
           d="m 830.51508,181.11888 c 1.39399,0 2.04999,-0.656 2.04999,-2.04999 v -5.98598 c 0,-1.39399 -0.656,-2.04999 -2.04999,-2.04999 h -22.54992 c -5.00198,0 -6.39598,-1.394 -6.39598,-6.96998 v -1.63999 h 32.63589 c 1.39399,0 2.04999,-0.656 2.04999,-2.04999 v -7.37998 c 0,-12.13595 -4.42799,-17.95793 -16.97394,-17.95793 h -11.56196 c -12.54595,0 -16.97394,5.82198 -16.97394,17.95793 v 9.92197 c 0,12.38195 4.26399,18.20393 16.97394,18.20393 z m -28.9459,-29.10989 c 0,-5.57598 1.394,-6.88798 6.39598,-6.88798 h 11.06996 c 5.00198,0 6.39598,1.312 6.39598,6.88798 v 2.13199 h -23.86192 z"
           id="path371" />
        <path
           style="color:#000000;-inkscape-font-specification:'Kallisto, Bold';fill:#000000;stroke:none;-inkscape-stroke:none"
           d="m 807.71875,134.97852 c -6.28161,0 -10.5436,1.45968 -13.23242,4.44726 -2.68883,2.98758 -3.79688,7.49164 -3.79688,13.56641 v 9.92187 c 0,6.19739 1.066,10.76454 3.73438,13.78321 2.66837,3.01866 6.93142,4.47656 13.29492,4.47656 h 22.79687 c 0.70576,0 1.23413,-0.16576 1.58594,-0.51758 0.35182,-0.35182 0.51953,-0.88213 0.51953,-1.58789 v -5.98633 c 0,-0.70576 -0.16771,-1.23412 -0.51953,-1.58594 -0.35181,-0.35181 -0.88018,-0.51953 -1.58594,-0.51953 h -22.55078 c -2.49579,0 -4.07602,-0.34729 -5.0332,-1.375 -0.95717,-1.0277 -1.30664,-2.75573 -1.30664,-5.53906 v -1.58398 h 32.58008 c 0.70576,0 1.23607,-0.16577 1.58789,-0.51758 0.35182,-0.35182 0.51758,-0.88213 0.51758,-1.58789 v -7.38086 c 0,-6.07477 -1.10805,-10.57883 -3.79688,-13.56641 -2.68882,-2.98758 -6.95081,-4.44726 -13.23242,-4.44726 z m 0,0.11328 h 11.5625 c 6.26433,0 10.48874,1.45081 13.15039,4.4082 2.66165,2.95739 3.76758,7.43101 3.76758,13.49219 v 7.38086 c 0,0.68823 -0.16165,1.18313 -0.48633,1.50781 -0.32468,0.32468 -0.81958,0.48633 -1.50781,0.48633 h -32.69141 v 1.69531 c 0,2.79264 0.34562,4.55195 1.33594,5.61523 0.99032,1.06329 2.60906,1.41016 5.11523,1.41016 h 22.55078 c 0.68823,0 1.18314,0.16165 1.50782,0.48633 0.32468,0.32468 0.48633,0.81958 0.48633,1.50781 v 5.98633 c 0,0.68823 -0.16165,1.18313 -0.48633,1.50781 -0.32468,0.32468 -0.81959,0.48633 -1.50782,0.48633 h -22.79687 c -6.34644,0 -10.56983,-1.45164 -13.21094,-4.43945 -2.6411,-2.98781 -3.70703,-7.52443 -3.70703,-13.70899 v -9.92187 c 0,-6.06118 1.10593,-10.5348 3.76758,-13.49219 2.66165,-2.95739 6.88606,-4.4082 13.15039,-4.4082 z m 0.24609,9.97265 c -2.50587,0 -4.12259,0.32827 -5.11328,1.3711 -0.99068,1.04282 -1.33789,2.78157 -1.33789,5.57422 v 2.1875 h 23.97266 v -2.1875 c 0,-2.79265 -0.34721,-4.5314 -1.33789,-5.57422 -0.99069,-1.04283 -2.60741,-1.3711 -5.11328,-1.3711 z m 0,0.11328 h 11.07032 c 2.4961,0 4.07639,0.32682 5.0332,1.33399 0.95681,1.00717 1.30664,2.71471 1.30664,5.49805 v 2.07617 h -23.75 v -2.07617 c 0,-2.78334 0.34983,-4.49088 1.30664,-5.49805 0.95681,-1.00717 2.5371,-1.33399 5.0332,-1.33399 z"
           id="path373" />
      </g>
    </g>
  </g>
</svg>
