<?xml version="1.0" encoding="UTF-8" standalone="no"?>
<svg
   width="135.5"
   height="25.96"
   viewBox="0 0 135.5 25.96"
   version="1.1"
   id="svg544"
   sodipodi:docname="bravura-safe-logo-dark.svg"
   inkscape:version="1.2.1 (9c6d41e410, 2022-07-14)"
   xmlns:inkscape="http://www.inkscape.org/namespaces/inkscape"
   xmlns:sodipodi="http://sodipodi.sourceforge.net/DTD/sodipodi-0.dtd"
   xmlns="http://www.w3.org/2000/svg"
   xmlns:svg="http://www.w3.org/2000/svg">
  <defs
     id="defs548">
    <clipPath
       clipPathUnits="userSpaceOnUse"
       id="clipPath124">
      <path
         d="M 0,300 H 1000 V 0 H 0 Z"
         id="path122" />
    </clipPath>
    <rect
       x="780.16528"
       y="254.54546"
       width="544.3526"
       height="143.25069"
       id="rect531" />
  </defs>
  <sodipodi:namedview
     id="namedview546"
     pagecolor="#ffffff"
     bordercolor="#000000"
     borderopacity="0.25"
     inkscape:showpageshadow="2"
     inkscape:pageopacity="0.0"
     inkscape:pagecheckerboard="0"
     inkscape:deskcolor="#d1d1d1"
     showgrid="false"
     inkscape:zoom="4.4649447"
     inkscape:cx="98.881405"
     inkscape:cy="54.423967"
     inkscape:window-width="1920"
     inkscape:window-height="1009"
     inkscape:window-x="-8"
     inkscape:window-y="-8"
     inkscape:window-maximized="1"
     inkscape:current-layer="svg544" />
  <path
     fill-rule="nonzero"
     fill="#000000"
     fill-opacity="1"
     d="m 32.106691,16.269551 c 0.993067,0 1.648948,-0.245681 1.648948,-1.298954 v -0.281359 c 0,-1.035434 -0.624085,-1.33382 -1.48849,-1.33382 h -4.514275 v 2.914133 z m 0.0806,-4.880404 c 0.832606,0 1.456694,-0.227843 1.456694,-1.246249 V 9.8623477 c 0,-1.054082 -0.624088,-1.3346297 -1.64895,-1.3346297 h -4.242161 v 2.861429 z m -6.643859,6.759104 V 6.6319886 c 0,-0.2813573 0.14345,-0.4386604 0.400036,-0.4386604 h 6.195758 c 2.705607,0 3.777793,1.1586802 3.81033,3.4225263 V 9.791806 c 0,1.457067 -0.544968,2.141411 -1.169055,2.563044 0.640356,0.421633 1.248913,1.193547 1.248913,2.721155 v 0.158113 c 0,2.246819 -1.072926,3.352794 -3.778534,3.352794 h -6.307412 c -0.256586,0 -0.400036,-0.158113 -0.400036,-0.438661"
     id="path2"
     style="stroke-width:0.198224" />
  <path
     fill-rule="nonzero"
     fill="#000000"
     fill-opacity="1"
     d="m 43.329154,8.7206947 c 0.255845,0 0.400036,0.1581127 0.400036,0.4386605 v 1.2819288 c 0,0.280548 -0.144191,0.438661 -0.400036,0.438661 h -2.305571 c -0.864403,0 -1.248911,0.246493 -1.248911,1.492742 v 5.775564 c 0,0.280548 -0.143452,0.438661 -0.400035,0.438661 h -1.312505 c -0.256587,0 -0.400777,-0.158113 -0.400777,-0.438661 V 9.1593552 c 0,-0.2805478 0.14419,-0.4386605 0.400777,-0.4386605 h 1.312505 c 0.256583,0 0.400035,0.1581127 0.400035,0.4386605 v 0.7029925 c 0.384508,-0.7378566 1.089193,-1.141653 2.321837,-1.141653 z m 0,0"
     id="path4"
     style="stroke-width:0.198224" />
  <path
     fill-rule="nonzero"
     fill="#000000"
     fill-opacity="1"
     d="m 49.364453,16.497396 c 1.056658,0 1.4249,-0.385957 1.4249,-1.509771 V 14.14517 l -3.521947,0.386767 c -0.848877,0.08757 -1.089194,0.351089 -1.089194,1.035433 0,0.63164 0.416304,0.930026 1.217116,0.930026 z m -5.315085,-0.701371 c 0,-2.001947 0.688418,-2.738994 2.865326,-2.984678 l 3.362228,-0.368928 c 0.383768,-0.0527 0.512431,-0.262709 0.512431,-0.631639 0,-0.72002 -0.288381,-0.930835 -1.12099,-0.930835 h -4.498745 c -0.255847,0 -0.400036,-0.158113 -0.400036,-0.438661 V 9.1601668 c 0,-0.2813594 0.144189,-0.4394721 0.400036,-0.4394721 h 4.546809 c 2.305571,0 3.186242,0.8951598 3.186242,2.8971063 v 6.53045 c 0,0.280548 -0.144191,0.438661 -0.400776,0.438661 h -1.312504 c -0.255845,0 -0.400036,-0.158113 -0.400036,-0.438661 v -0.825427 c -0.416304,0.842455 -1.056658,1.264088 -2.449761,1.264088 h -0.928736 c -2.145111,0 -3.361488,-0.807589 -3.361488,-2.790887"
     id="path6"
     style="stroke-width:0.198224" />
  <path
     fill-rule="nonzero"
     fill="#000000"
     fill-opacity="1"
     d="M 57.544866,18.25285 53.766333,9.2298989 C 53.638411,8.9136735 53.750811,8.7206947 54.054715,8.7206947 h 1.456694 c 0.224049,0 0.36824,0.1054099 0.464367,0.3340643 l 2.929658,7.249658 2.914128,-7.249658 c 0.09539,-0.2286544 0.239577,-0.3340643 0.463628,-0.3340643 h 1.489229 c 0.303909,0 0.416304,0.1929788 0.288381,0.5092042 L 60.250473,18.25285 c -0.09613,0.210815 -0.255847,0.334062 -0.480636,0.334062 h -1.745076 c -0.224049,0 -0.383768,-0.123247 -0.479895,-0.334062"
     id="path8"
     style="stroke-width:0.198224" />
  <path
     fill-rule="nonzero"
     fill="#000000"
     fill-opacity="1"
     d="m 72.321071,8.7206947 h 1.312504 c 0.255847,0 0.400038,0.1581127 0.400038,0.4386605 v 8.9888958 c 0,0.280548 -0.144191,0.438661 -0.400038,0.438661 h -1.312504 c -0.256585,0 -0.400776,-0.158113 -0.400776,-0.438661 v -0.702992 c -0.383768,0.737858 -1.088453,1.141653 -2.321099,1.141653 h -1.168312 c -2.562156,0 -3.314164,-1.387335 -3.314164,-3.896862 V 9.1593552 c 0,-0.2805478 0.144191,-0.4386605 0.400036,-0.4386605 H 66.83 c 0.255845,0 0.400036,0.1581127 0.400036,0.4386605 v 5.7763758 c 0,1.228413 0.288381,1.491933 1.248913,1.491933 h 2.193174 c 0.864404,0 1.248172,-0.228654 1.248172,-1.491933 V 9.1593552 c 0,-0.2805478 0.144191,-0.4386605 0.400776,-0.4386605"
     id="path10"
     style="stroke-width:0.198224" />
  <path
     fill-rule="nonzero"
     fill="#000000"
     fill-opacity="1"
     d="m 81.525606,8.7206947 c 0.256586,0 0.400037,0.1581127 0.400037,0.4386605 v 1.2819288 c 0,0.280548 -0.143451,0.438661 -0.400037,0.438661 h -2.30557 c -0.864402,0 -1.248173,0.246493 -1.248173,1.492742 v 5.775564 c 0,0.280548 -0.14419,0.438661 -0.400774,0.438661 h -1.312505 c -0.255845,0 -0.400037,-0.158113 -0.400037,-0.438661 V 9.1593552 c 0,-0.2805478 0.144192,-0.4386605 0.400037,-0.4386605 h 1.312505 c 0.256584,0 0.400774,0.1581127 0.400774,0.4386605 v 0.7029925 c 0.383771,-0.7378566 1.088454,-1.141653 2.321099,-1.141653 z m 0,0"
     id="path12"
     style="stroke-width:0.198224" />
  <path
     fill-rule="nonzero"
     fill="#000000"
     fill-opacity="1"
     d="m 87.560906,16.497396 c 1.056657,0 1.424899,-0.385957 1.424899,-1.509771 V 14.14517 l -3.521947,0.386767 c -0.848876,0.08757 -1.088454,0.351089 -1.088454,1.035433 0,0.63164 0.415564,0.930026 1.216377,0.930026 z M 82.24582,15.796025 c 0,-2.001947 0.688418,-2.738994 2.865327,-2.984678 l 3.362228,-0.368928 c 0.384508,-0.0527 0.51243,-0.262709 0.51243,-0.631639 0,-0.72002 -0.288381,-0.930835 -1.12099,-0.930835 H 83.36607 c -0.255846,0 -0.400036,-0.158113 -0.400036,-0.438661 V 9.1601668 c 0,-0.2813594 0.14419,-0.4394721 0.400036,-0.4394721 h 4.54681 c 2.305571,0 3.186242,0.8951598 3.186242,2.8971063 v 6.53045 c 0,0.280548 -0.144191,0.438661 -0.400776,0.438661 h -1.312504 c -0.255846,0 -0.400037,-0.158113 -0.400037,-0.438661 v -0.825427 c -0.416304,0.842455 -1.056657,1.264088 -2.449761,1.264088 h -0.927995 c -2.145852,0 -3.362229,-0.807589 -3.362229,-2.790887"
     id="path14"
     style="stroke-width:0.198224" />
  <path
     fill-rule="nonzero"
     fill="#00d0c1"
     fill-opacity="1"
     d="m 20.874616,6.1576526 -9.075872,9.9529764 2.59321,2.84359 6.765866,-7.419121 c 0,0 1.55578,-2.3270918 -0.283204,-5.3774454"
     id="path32"
     style="stroke-width:0.198224" />
  <path
     fill-rule="nonzero"
     fill="#f65e0a"
     fill-opacity="1"
     d="m 5.2998136,1.8602367 9.0758744,9.9529763 2.59321,-2.8435923 -6.765864,-7.4191224 c 0,0 -2.12145,-1.7068036 -4.9032204,0.3097384"
     id="path34"
     style="stroke-width:0.198224" />
  <path
     fill-rule="nonzero"
     fill="#f65e0a"
     fill-opacity="1"
     d="m 16.988864,23.224068 -9.0766103,-9.952977 -2.5932128,2.843592 6.7658641,7.419121 c 0,0 2.12219,1.706805 4.903959,-0.309736"
     id="path36"
     style="stroke-width:0.198224" />
  <path
     fill-rule="nonzero"
     fill="#00d0c1"
     fill-opacity="1"
     d="M 1.4377266,18.984222 10.513597,9.0312451 7.9203858,6.1876531 1.1545217,13.606776 c 0,0 -1.55577885,2.32628 0.2832049,5.377446"
     id="path38"
     style="stroke-width:0.198224" />
  <path
     fill-rule="nonzero"
     fill="#414141"
     fill-opacity="1"
     d="M 17.755662,22.488642 15.16245,19.64505 17.661013,16.905245 c 0,0 1.815324,2.765752 0.09465,5.583397"
     id="path40"
     style="stroke-width:0.198224" />
  <path
     fill-rule="nonzero"
     fill="#414141"
     fill-opacity="1"
     d="M 20.233522,5.45466 17.640309,8.2982519 15.141006,5.5584467 c 0,0 2.522966,-1.9905945 5.092516,-0.1037867"
     id="path42"
     style="stroke-width:0.198224" />
  <path
     fill-rule="nonzero"
     fill="#414141"
     fill-opacity="1"
     d="M 4.6232292,2.605393 7.2164391,5.448985 4.7178778,8.1887882 c 0,0 -1.815324,-2.7657499 -0.094649,-5.5833952"
     id="path44"
     style="stroke-width:0.198224" />
  <path
     fill-rule="nonzero"
     fill="#414141"
     fill-opacity="1"
     d="m 2.1919542,19.728565 2.5932099,-2.843592 2.4985642,2.739805 c 0,0 -2.5222253,1.990597 -5.0917741,0.103787"
     id="path46"
     style="stroke-width:0.198224" />
  <path
     fill-rule="nonzero"
     fill="#414141"
     fill-opacity="1"
     d="M 11.149516,15.34277 8.6036273,12.551071 11.149516,9.7593727 13.695404,12.551071 Z m 0,0"
     id="path48"
     style="stroke-width:0.198224" />
  <text
     xml:space="preserve"
     transform="matrix(0.14197226,0,0,0.15567996,-13.144203,-36.339639)"
     id="text529"
     style="font-style:normal;font-variant:normal;font-weight:bold;font-stretch:normal;font-size:109.333px;font-family:Kallisto;-inkscape-font-specification:'Kallisto, Bold';font-variant-ligatures:normal;font-variant-caps:normal;font-variant-numeric:normal;font-variant-east-asian:normal;white-space:pre;shape-inside:url(#rect531);display:inline;fill:#000000;stroke:#000000"><tspan
       x="780.16602"
       y="355.02195"
       id="tspan1108">Safe</tspan></text>
</svg>
