<?xml version="1.0" encoding="UTF-8" standalone="no"?>
<svg
   width="135.5"
   height="25.96"
   viewBox="0 0 135.5 25.96"
   version="1.1"
   id="svg544"
   xmlns="http://www.w3.org/2000/svg"
   xmlns:svg="http://www.w3.org/2000/svg">
  <defs
     id="defs548">
    <clipPath
       clipPathUnits="userSpaceOnUse"
       id="clipPath124">
      <path
         d="M 0,300 H 1000 V 0 H 0 Z"
         id="path122" />
    </clipPath>
    <rect
       x="780.16528"
       y="254.54546"
       width="544.3526"
       height="143.25069"
       id="rect531" />
  </defs>
  <path
     fill-rule="nonzero"
     fill="#000000"
     fill-opacity="1"
     d="m 32.106691,16.269551 c 0.993067,0 1.648948,-0.245681 1.648948,-1.298954 v -0.281359 c 0,-1.035434 -0.624085,-1.33382 -1.48849,-1.33382 h -4.514275 v 2.914133 z m 0.0806,-4.880404 c 0.832606,0 1.456694,-0.227843 1.456694,-1.246249 V 9.8623477 c 0,-1.054082 -0.624088,-1.3346297 -1.64895,-1.3346297 h -4.242161 v 2.861429 z m -6.643859,6.759104 V 6.6319886 c 0,-0.2813573 0.14345,-0.4386604 0.400036,-0.4386604 h 6.195758 c 2.705607,0 3.777793,1.1586802 3.81033,3.4225263 V 9.791806 c 0,1.457067 -0.544968,2.141411 -1.169055,2.563044 0.640356,0.421633 1.248913,1.193547 1.248913,2.721155 v 0.158113 c 0,2.246819 -1.072926,3.352794 -3.778534,3.352794 h -6.307412 c -0.256586,0 -0.400036,-0.158113 -0.400036,-0.438661"
     id="path2"
     style="stroke-width:0.198224" />
  <path
     fill-rule="nonzero"
     fill="#000000"
     fill-opacity="1"
     d="m 43.329154,8.7206947 c 0.255845,0 0.400036,0.1581127 0.400036,0.4386605 v 1.2819288 c 0,0.280548 -0.144191,0.438661 -0.400036,0.438661 h -2.305571 c -0.864403,0 -1.248911,0.246493 -1.248911,1.492742 v 5.775564 c 0,0.280548 -0.143452,0.438661 -0.400035,0.438661 h -1.312505 c -0.256587,0 -0.400777,-0.158113 -0.400777,-0.438661 V 9.1593552 c 0,-0.2805478 0.14419,-0.4386605 0.400777,-0.4386605 h 1.312505 c 0.256583,0 0.400035,0.1581127 0.400035,0.4386605 v 0.7029925 c 0.384508,-0.7378566 1.089193,-1.141653 2.321837,-1.141653 z m 0,0"
     id="path4"
     style="stroke-width:0.198224" />
  <path
     fill-rule="nonzero"
     fill="#000000"
     fill-opacity="1"
     d="m 49.364453,16.497396 c 1.056658,0 1.4249,-0.385957 1.4249,-1.509771 V 14.14517 l -3.521947,0.386767 c -0.848877,0.08757 -1.089194,0.351089 -1.089194,1.035433 0,0.63164 0.416304,0.930026 1.217116,0.930026 z m -5.315085,-0.701371 c 0,-2.001947 0.688418,-2.738994 2.865326,-2.984678 l 3.362228,-0.368928 c 0.383768,-0.0527 0.512431,-0.262709 0.512431,-0.631639 0,-0.72002 -0.288381,-0.930835 -1.12099,-0.930835 h -4.498745 c -0.255847,0 -0.400036,-0.158113 -0.400036,-0.438661 V 9.1601668 c 0,-0.2813594 0.144189,-0.4394721 0.400036,-0.4394721 h 4.546809 c 2.305571,0 3.186242,0.8951598 3.186242,2.8971063 v 6.53045 c 0,0.280548 -0.144191,0.438661 -0.400776,0.438661 h -1.312504 c -0.255845,0 -0.400036,-0.158113 -0.400036,-0.438661 v -0.825427 c -0.416304,0.842455 -1.056658,1.264088 -2.449761,1.264088 h -0.928736 c -2.145111,0 -3.361488,-0.807589 -3.361488,-2.790887"
     id="path6"
     style="stroke-width:0.198224" />
  <path
     fill-rule="nonzero"
     fill="#000000"
     fill-opacity="1"
     d="M 57.544866,18.25285 53.766333,9.2298989 C 53.638411,8.9136735 53.750811,8.7206947 54.054715,8.7206947 h 1.456694 c 0.224049,0 0.36824,0.1054099 0.464367,0.3340643 l 2.929658,7.249658 2.914128,-7.249658 c 0.09539,-0.2286544 0.239577,-0.3340643 0.463628,-0.3340643 h 1.489229 c 0.303909,0 0.416304,0.1929788 0.288381,0.5092042 L 60.250473,18.25285 c -0.09613,0.210815 -0.255847,0.334062 -0.480636,0.334062 h -1.745076 c -0.224049,0 -0.383768,-0.123247 -0.479895,-0.334062"
     id="path8"
     style="stroke-width:0.198224" />
  <path
     fill-rule="nonzero"
     fill="#000000"
     fill-opacity="1"
     d="m 72.321071,8.7206947 h 1.312504 c 0.255847,0 0.400038,0.1581127 0.400038,0.4386605 v 8.9888958 c 0,0.280548 -0.144191,0.438661 -0.400038,0.438661 h -1.312504 c -0.256585,0 -0.400776,-0.158113 -0.400776,-0.438661 v -0.702992 c -0.383768,0.737858 -1.088453,1.141653 -2.321099,1.141653 h -1.168312 c -2.562156,0 -3.314164,-1.387335 -3.314164,-3.896862 V 9.1593552 c 0,-0.2805478 0.144191,-0.4386605 0.400036,-0.4386605 H 66.83 c 0.255845,0 0.400036,0.1581127 0.400036,0.4386605 v 5.7763758 c 0,1.228413 0.288381,1.491933 1.248913,1.491933 h 2.193174 c 0.864404,0 1.248172,-0.228654 1.248172,-1.491933 V 9.1593552 c 0,-0.2805478 0.144191,-0.4386605 0.400776,-0.4386605"
     id="path10"
     style="stroke-width:0.198224" />
  <path
     fill-rule="nonzero"
     fill="#000000"
     fill-opacity="1"
     d="m 81.525606,8.7206947 c 0.256586,0 0.400037,0.1581127 0.400037,0.4386605 v 1.2819288 c 0,0.280548 -0.143451,0.438661 -0.400037,0.438661 h -2.30557 c -0.864402,0 -1.248173,0.246493 -1.248173,1.492742 v 5.775564 c 0,0.280548 -0.14419,0.438661 -0.400774,0.438661 h -1.312505 c -0.255845,0 -0.400037,-0.158113 -0.400037,-0.438661 V 9.1593552 c 0,-0.2805478 0.144192,-0.4386605 0.400037,-0.4386605 h 1.312505 c 0.256584,0 0.400774,0.1581127 0.400774,0.4386605 v 0.7029925 c 0.383771,-0.7378566 1.088454,-1.141653 2.321099,-1.141653 z m 0,0"
     id="path12"
     style="stroke-width:0.198224" />
  <path
     fill-rule="nonzero"
     fill="#000000"
     fill-opacity="1"
     d="m 87.560906,16.497396 c 1.056657,0 1.424899,-0.385957 1.424899,-1.509771 V 14.14517 l -3.521947,0.386767 c -0.848876,0.08757 -1.088454,0.351089 -1.088454,1.035433 0,0.63164 0.415564,0.930026 1.216377,0.930026 z M 82.24582,15.796025 c 0,-2.001947 0.688418,-2.738994 2.865327,-2.984678 l 3.362228,-0.368928 c 0.384508,-0.0527 0.51243,-0.262709 0.51243,-0.631639 0,-0.72002 -0.288381,-0.930835 -1.12099,-0.930835 H 83.36607 c -0.255846,0 -0.400036,-0.158113 -0.400036,-0.438661 V 9.1601668 c 0,-0.2813594 0.14419,-0.4394721 0.400036,-0.4394721 h 4.54681 c 2.305571,0 3.186242,0.8951598 3.186242,2.8971063 v 6.53045 c 0,0.280548 -0.144191,0.438661 -0.400776,0.438661 h -1.312504 c -0.255846,0 -0.400037,-0.158113 -0.400037,-0.438661 v -0.825427 c -0.416304,0.842455 -1.056657,1.264088 -2.449761,1.264088 h -0.927995 c -2.145852,0 -3.362229,-0.807589 -3.362229,-2.790887"
     id="path14"
     style="stroke-width:0.198224" />
  <path
     fill-rule="nonzero"
     fill="#00d0c1"
     fill-opacity="1"
     d="m 20.874616,6.1576526 -9.075872,9.9529764 2.59321,2.84359 6.765866,-7.419121 c 0,0 1.55578,-2.3270918 -0.283204,-5.3774454"
     id="path32"
     style="stroke-width:0.198224" />
  <path
     fill-rule="nonzero"
     fill="#f65e0a"
     fill-opacity="1"
     d="m 5.2998136,1.8602367 9.0758744,9.9529763 2.59321,-2.8435923 -6.765864,-7.4191224 c 0,0 -2.12145,-1.7068036 -4.9032204,0.3097384"
     id="path34"
     style="stroke-width:0.198224" />
  <path
     fill-rule="nonzero"
     fill="#f65e0a"
     fill-opacity="1"
     d="m 16.988864,23.224068 -9.0766103,-9.952977 -2.5932128,2.843592 6.7658641,7.419121 c 0,0 2.12219,1.706805 4.903959,-0.309736"
     id="path36"
     style="stroke-width:0.198224" />
  <path
     fill-rule="nonzero"
     fill="#00d0c1"
     fill-opacity="1"
     d="M 1.4377266,18.984222 10.513597,9.0312451 7.9203858,6.1876531 1.1545217,13.606776 c 0,0 -1.55577885,2.32628 0.2832049,5.377446"
     id="path38"
     style="stroke-width:0.198224" />
  <path
     fill-rule="nonzero"
     fill="#414141"
     fill-opacity="1"
     d="M 17.755662,22.488642 15.16245,19.64505 17.661013,16.905245 c 0,0 1.815324,2.765752 0.09465,5.583397"
     id="path40"
     style="stroke-width:0.198224" />
  <path
     fill-rule="nonzero"
     fill="#414141"
     fill-opacity="1"
     d="M 20.233522,5.45466 17.640309,8.2982519 15.141006,5.5584467 c 0,0 2.522966,-1.9905945 5.092516,-0.1037867"
     id="path42"
     style="stroke-width:0.198224" />
  <path
     fill-rule="nonzero"
     fill="#414141"
     fill-opacity="1"
     d="M 4.6232292,2.605393 7.2164391,5.448985 4.7178778,8.1887882 c 0,0 -1.815324,-2.7657499 -0.094649,-5.5833952"
     id="path44"
     style="stroke-width:0.198224" />
  <path
     fill-rule="nonzero"
     fill="#414141"
     fill-opacity="1"
     d="m 2.1919542,19.728565 2.5932099,-2.843592 2.4985642,2.739805 c 0,0 -2.5222253,1.990597 -5.0917741,0.103787"
     id="path46"
     style="stroke-width:0.198224" />
  <path
     fill-rule="nonzero"
     fill="#414141"
     fill-opacity="1"
     d="M 11.149516,15.34277 8.6036273,12.551071 11.149516,9.7593727 13.695404,12.551071 Z m 0,0"
     id="path48"
     style="stroke-width:0.198224" />
  <g
     aria-label="Safe"
     transform="matrix(0.14197226,0,0,0.15567996,-13.144203,-36.339639)"
     id="text529"
     style="font-weight:bold;font-size:109.333px;font-family:Kallisto;-inkscape-font-specification:'Kallisto, Bold';white-space:pre;shape-inside:url(#rect531);display:inline;stroke:#000000">
    <path
       d="m 832.64586,355.02195 c 18.69594,0 26.23992,-7.54398 26.23992,-22.8506 0,-14.10396 -6.88798,-20.11727 -23.61593,-21.42927 l -24.38126,-1.85866 c -7.54398,-0.54666 -10.16797,-2.29599 -10.16797,-8.09064 0,-6.45065 2.95199,-8.41864 11.37063,-8.41864 h 19.78927 c 6.99732,0 10.05864,2.51466 10.60531,8.74664 0.10933,1.85866 1.09333,2.73332 2.73332,2.73332 h 9.83997 c 1.85866,0 2.73333,-0.98399 2.62399,-2.84265 -0.76533,-15.63462 -8.74664,-23.1786 -25.80259,-23.1786 h -20.00793 c -18.47728,0 -26.13059,7.54398 -26.13059,22.8506 0,7.10664 1.74933,12.35463 5.35732,15.52528 3.60798,3.17066 9.6213,5.02932 18.14927,5.68532 l 24.38126,1.85866 c 7.54398,0.54667 10.16797,2.29599 10.16797,8.30931 0,6.23198 -2.95199,8.41864 -11.2613,8.41864 h -21.42927 c -7.10664,0 -10.16796,-2.51466 -10.71463,-8.74664 -0.10933,-1.85866 -1.09333,-2.73333 -2.73332,-2.73333 h -9.73064 c -1.85866,0 -2.73333,0.984 -2.62399,2.84266 0.76533,15.63462 8.6373,23.1786 25.80258,23.1786 z"
       id="path409" />
    <path
       d="m 895.84029,355.02195 c 9.18398,0 13.77596,-2.51466 16.72795,-7.87198 v 5.13865 c 0,1.85867 0.87467,2.73333 2.73333,2.73333 h 8.9653 c 1.85867,0 2.73333,-0.87466 2.73333,-2.73333 v -40.67187 c 0,-12.68263 -6.12265,-18.03995 -21.75727,-18.03995 h -31.05057 c -1.85866,0 -2.73333,0.87467 -2.73333,2.73333 v 7.98131 c 0,1.85866 0.87467,2.73332 2.73333,2.73332 h 30.72257 c 5.68532,0 7.65331,1.42133 7.65331,5.79465 0,2.29599 -1.20266,3.60799 -3.49865,3.93599 l -22.95993,2.29599 c -7.43465,0.76533 -12.5733,2.40533 -15.41596,5.13865 -2.73332,2.73333 -4.15465,7.21598 -4.15465,13.44796 0,11.5893 7.65331,17.38395 22.95993,17.38395 z m -6.45064,-13.01063 c -5.57599,0 -8.30931,-1.96799 -8.30931,-5.79465 0,-4.37332 1.74933,-5.90398 7.43464,-6.45064 l 24.05326,-2.40533 v 5.24798 c 0,6.99732 -2.40532,9.40264 -9.73063,9.40264 z"
       id="path411" />
    <path
       d="m 952.80273,355.02195 c 1.85866,0 2.73332,-0.87466 2.73332,-2.73333 v -45.70119 h 16.50929 c 1.85866,0 2.73332,-0.87466 2.73332,-2.73333 v -7.54397 c 0,-1.85866 -0.87466,-2.73333 -2.73332,-2.73333 h -16.50929 c 0,-3.60799 0.43733,-6.01331 1.42133,-7.10664 0.984,-1.20267 3.27999,-1.74933 6.77865,-1.74933 h 8.30931 c 1.85866,0 2.73332,-0.87466 2.73332,-2.73333 v -7.21597 c 0,-1.85866 -0.87466,-2.73333 -2.73332,-2.73333 h -8.30931 c -8.63731,0 -14.65062,1.64 -17.82128,4.91999 -3.17066,3.17065 -4.81065,8.74664 -4.81065,16.61861 h -4.48266 c -1.85866,0 -2.73332,0.87467 -2.73332,2.73333 v 7.54397 c 0,1.85867 0.87466,2.73333 2.73332,2.73333 h 4.59199 v 45.70119 c 0,1.85867 0.87466,2.73333 2.73332,2.73333 z"
       id="path413" />
    <path
       d="m 1032.0693,355.02195 c 1.8586,0 2.7333,-0.87466 2.7333,-2.73333 v -7.9813 c 0,-1.85867 -0.8747,-2.73333 -2.7333,-2.73333 h -30.0666 c -6.66933,0 -8.52799,-1.85866 -8.52799,-9.2933 v -2.18666 h 43.51449 c 1.8587,0 2.7334,-0.87467 2.7334,-2.73333 v -9.83997 c 0,-16.18128 -5.904,-23.94393 -22.632,-23.94393 h -15.4159 c -16.72796,0 -22.63194,7.76265 -22.63194,23.94393 v 13.22929 c 0,16.50929 5.68531,24.27193 22.63194,24.27193 z m -38.59459,-38.81322 c 0,-7.43464 1.85866,-9.18397 8.52799,-9.18397 h 14.7599 c 6.6694,0 8.528,1.74933 8.528,9.18397 v 2.84266 h -31.81589 z"
       id="path415" />
  </g>
</svg>
