<?xml version="1.0" encoding="UTF-8" standalone="no"?>
<svg
   id="Layer_1"
   data-name="Layer 1"
   viewBox="0 0 547 83"
   version="1.1"
   sodipodi:docname="logo-horizontal-white.svg"
   inkscape:version="1.2.1 (9c6d41e410, 2022-07-14)"
   xmlns:inkscape="http://www.inkscape.org/namespaces/inkscape"
   xmlns:sodipodi="http://sodipodi.sourceforge.net/DTD/sodipodi-0.dtd"
   xmlns="http://www.w3.org/2000/svg"
   xmlns:svg="http://www.w3.org/2000/svg">
  <sodipodi:namedview
     id="namedview213"
     pagecolor="#ffffff"
     bordercolor="#000000"
     borderopacity="0.25"
     inkscape:showpageshadow="2"
     inkscape:pageopacity="0.0"
     inkscape:pagecheckerboard="0"
     inkscape:deskcolor="#d1d1d1"
     showgrid="false"
     inkscape:zoom="2.2449726"
     inkscape:cx="263.92305"
     inkscape:cy="41.425896"
     inkscape:window-width="1920"
     inkscape:window-height="1009"
     inkscape:window-x="-8"
     inkscape:window-y="-8"
     inkscape:window-maximized="1"
     inkscape:current-layer="Layer_1" />
  <defs
     id="defs208">
    <style
       id="style206">.cls-1{fill:#fff;fill-rule:evenodd;}</style>
    <rect
       x="780.16528"
       y="254.54546"
       width="544.3526"
       height="143.25069"
       id="rect531" />
  </defs>
  <path
     fill-rule="nonzero"
     fill="#000000"
     fill-opacity="1"
     d="m 129.7859,54.864614 c 4.03314,0 6.69686,-0.841737 6.69686,-4.450387 v -0.963975 c 0,-3.547531 -2.53459,-4.569843 -6.04519,-4.569843 H 112.1038 v 9.984205 z m 0.32734,-16.720908 c 3.38146,0 5.91606,-0.780619 5.91606,-4.269814 v -0.9612 c 0,-3.611424 -2.5346,-4.572617 -6.69686,-4.572617 H 112.1038 v 9.803631 z m -26.98263,23.157581 v -39.45623 c 0,-0.963967 0.5826,-1.502908 1.62467,-1.502908 h 25.16276 c 10.98825,0 15.34271,3.96979 15.47485,11.726024 v 0.602834 c 0,4.992102 -2.21327,7.336756 -4.74787,8.781326 2.60067,1.444571 5.0722,4.089247 5.0722,9.323035 v 0.541714 c 0,7.697897 -4.35747,11.487114 -15.34572,11.487114 h -25.61622 c -1.04207,0 -1.62467,-0.541715 -1.62467,-1.502909"
     id="path2"
     style="fill:#ffffff;stroke-width:0.739417" />
  <path
     fill-rule="nonzero"
     fill="#000000"
     fill-opacity="1"
     d="m 175.36357,29.001239 c 1.03906,0 1.62466,0.541714 1.62466,1.502908 v 4.392057 c 0,0.961194 -0.5856,1.502908 -1.62466,1.502908 h -9.36359 c -3.51059,0 -5.07219,0.844519 -5.07219,5.114332 v 19.787843 c 0,0.961194 -0.5826,1.502909 -1.62466,1.502909 h -5.33046 c -1.04207,0 -1.62767,-0.541715 -1.62767,-1.502909 v -30.79714 c 0,-0.961194 0.5856,-1.502908 1.62767,-1.502908 h 5.33046 c 1.04206,0 1.62466,0.541714 1.62466,1.502908 v 2.408545 c 1.5616,-2.527993 4.42353,-3.911453 9.42965,-3.911453 z m 0,0"
     id="path4"
     style="fill:#ffffff;stroke-width:0.739417" />
  <path
     fill-rule="nonzero"
     fill="#000000"
     fill-opacity="1"
     d="m 199.87466,55.645241 c 4.29139,0 5.78693,-1.322342 5.78693,-5.172677 v -2.886361 l -14.30364,1.325115 c -3.44754,0.300023 -4.42354,1.202879 -4.42354,3.547532 0,2.164079 1.69073,3.186391 4.94307,3.186391 z m -21.5861,-2.402991 c 0,-6.858933 2.79587,-9.384153 11.63692,-10.225897 l 13.65498,-1.263997 c 1.5586,-0.180574 2.08113,-0.900075 2.08113,-2.164079 0,-2.466883 -1.1712,-3.189165 -4.55266,-3.189165 h -18.27071 c -1.03906,0 -1.62466,-0.541714 -1.62466,-1.502908 v -4.389276 c 0,-0.963975 0.5856,-1.505689 1.62466,-1.505689 h 18.46591 c 9.36359,0 12.94025,3.066934 12.94025,9.925867 v 22.374181 c 0,0.961194 -0.5856,1.502909 -1.62767,1.502909 h -5.33045 c -1.03907,0 -1.62467,-0.541715 -1.62467,-1.502909 v -2.828023 c -1.69073,2.886361 -4.29139,4.330932 -9.94919,4.330932 h -3.77186 c -8.71192,0 -13.65198,-2.766905 -13.65198,-9.561946"
     id="path6"
     style="fill:#ffffff;stroke-width:0.739417" />
  <path
     fill-rule="nonzero"
     fill="#000000"
     fill-opacity="1"
     d="M 233.09769,61.659655 217.75197,30.74584 c -0.51953,-1.083431 -0.063,-1.744601 1.1712,-1.744601 h 5.91606 c 0.90993,0 1.49552,0.361148 1.88592,1.144548 l 11.89819,24.838283 11.83512,-24.838283 c 0.38739,-0.7834 0.97299,-1.144548 1.88292,-1.144548 h 6.04819 c 1.23426,0 1.69073,0.66117 1.1712,1.744601 l -15.47483,30.913815 c -0.39041,0.722282 -1.03907,1.144541 -1.95201,1.144541 h -7.08725 c -0.90993,0 -1.5586,-0.422259 -1.94899,-1.144541"
     id="path8"
     style="fill:#ffffff;stroke-width:0.739417" />
  <path
     fill-rule="nonzero"
     fill="#000000"
     fill-opacity="1"
     d="m 293.10812,29.001239 h 5.33046 c 1.03907,0 1.62467,0.541714 1.62467,1.502908 v 30.79714 c 0,0.961194 -0.5856,1.502909 -1.62467,1.502909 h -5.33046 c -1.04207,0 -1.62767,-0.541715 -1.62767,-1.502909 v -2.408544 c -1.55859,2.528 -4.42052,3.911453 -9.42665,3.911453 h -4.74485 c -10.40566,0 -13.45978,-4.753191 -13.45978,-13.351163 V 30.504147 c 0,-0.961194 0.5856,-1.502908 1.62466,-1.502908 h 5.33346 c 1.03906,0 1.62466,0.541714 1.62466,1.502908 v 19.790624 c 0,4.208702 1.1712,5.111558 5.0722,5.111558 h 8.90712 c 3.51059,0 5.06918,-0.7834 5.06918,-5.111558 V 30.504147 c 0,-0.961194 0.5856,-1.502908 1.62767,-1.502908"
     id="path10"
     style="fill:#ffffff;stroke-width:0.739417" />
  <path
     fill-rule="nonzero"
     fill="#000000"
     fill-opacity="1"
     d="m 330.49039,29.001239 c 1.04208,0 1.62467,0.541714 1.62467,1.502908 v 4.392057 c 0,0.961194 -0.58259,1.502908 -1.62467,1.502908 h -9.36358 c -3.51059,0 -5.06919,0.844519 -5.06919,5.114332 v 19.787843 c 0,0.961194 -0.5856,1.502909 -1.62766,1.502909 h -5.33046 c -1.03907,0 -1.62467,-0.541715 -1.62467,-1.502909 v -30.79714 c 0,-0.961194 0.5856,-1.502908 1.62467,-1.502908 h 5.33046 c 1.04206,0 1.62766,0.541714 1.62766,1.502908 v 2.408545 c 1.5586,-2.527993 4.42052,-3.911453 9.42665,-3.911453 z m 0,0"
     id="path12"
     style="fill:#ffffff;stroke-width:0.739417" />
  <path
     fill-rule="nonzero"
     fill="#000000"
     fill-opacity="1"
     d="m 355.00149,55.645241 c 4.29139,0 5.78693,-1.322342 5.78693,-5.172677 v -2.886361 l -14.30365,1.325115 c -3.44753,0.300023 -4.42052,1.202879 -4.42052,3.547532 0,2.164079 1.68772,3.186391 4.94005,3.186391 z m -21.5861,-2.402991 c 0,-6.858933 2.79586,-9.384153 11.63692,-10.225897 l 13.65498,-1.263997 c 1.5616,-0.180574 2.08113,-0.900075 2.08113,-2.164079 0,-2.466883 -1.1712,-3.189165 -4.55267,-3.189165 h -18.2707 c -1.03907,0 -1.62466,-0.541714 -1.62466,-1.502908 v -4.389276 c 0,-0.963975 0.58559,-1.505689 1.62466,-1.505689 h 18.46591 c 9.36359,0 12.94025,3.066934 12.94025,9.925867 v 22.374181 c 0,0.961194 -0.5856,1.502909 -1.62767,1.502909 h -5.33046 c -1.03906,0 -1.62466,-0.541715 -1.62466,-1.502909 v -2.828023 c -1.69073,2.886361 -4.29139,4.330932 -9.94919,4.330932 h -3.76885 c -8.71493,0 -13.65499,-2.766905 -13.65499,-9.561946"
     id="path14"
     style="fill:#ffffff;stroke-width:0.739417" />
  <path
     fill-rule="nonzero"
     fill="#00d0c1"
     fill-opacity="1"
     d="M 84.169202,20.219919 47.309465,54.320125 57.841241,64.062638 85.319377,38.643753 c 0,0 6.318469,-7.972921 -1.150175,-18.423834"
     id="path32"
     style="stroke-width:0.739417" />
  <path
     fill-rule="nonzero"
     fill="#f65e0a"
     fill-opacity="1"
     d="M 20.915432,5.4964054 57.775179,39.596612 68.306955,29.854092 40.828828,4.4352032 c 0,0 -8.615823,-5.8477331 -19.913396,1.0612022"
     id="path34"
     style="stroke-width:0.739417" />
  <path
     fill-rule="nonzero"
     fill="#f65e0a"
     fill-opacity="1"
     d="M 68.388039,78.691701 31.525305,44.591495 20.993519,54.334015 48.471648,79.7529 c 0,0 8.618826,5.847737 19.916391,-1.061199"
     id="path36"
     style="stroke-width:0.739417" />
  <path
     fill-rule="nonzero"
     fill="#00d0c1"
     fill-opacity="1"
     d="M 5.2303806,64.165431 42.090115,30.065225 31.558333,20.322705 4.0802039,45.741597 c 0,0 -6.3184674,7.970141 1.1501767,18.423834"
     id="path38"
     style="stroke-width:0.739417" />
  <path
     fill-rule="nonzero"
     fill="#414141"
     fill-opacity="1"
     d="m 71.502227,76.172036 -10.531776,-9.74252 10.147382,-9.386934 c 0,0 7.372554,9.47583 0.384394,19.129454"
     id="path40"
     style="stroke-width:0.739417" />
  <path
     fill-rule="nonzero"
     fill="#414141"
     fill-opacity="1"
     d="m 81.565535,17.811374 -10.531784,9.74252 -10.150396,-9.386933 c 0,0 10.246494,-6.820038 20.68218,-0.355587"
     id="path42"
     style="stroke-width:0.739417" />
  <path
     fill-rule="nonzero"
     fill="#414141"
     fill-opacity="1"
     d="m 18.167627,8.0494128 10.531774,9.7425182 -10.147379,9.386926 c 0,0 -7.372555,-9.475823 -0.384395,-19.1294442"
     id="path44"
     style="stroke-width:0.739417" />
  <path
     fill-rule="nonzero"
     fill="#414141"
     fill-opacity="1"
     d="m 8.2935169,66.715649 10.5317751,-9.74252 10.14739,9.386934 c 0,0 -10.243485,6.820045 -20.6791651,0.355586"
     id="path46"
     style="stroke-width:0.739417" />
  <path
     fill-rule="nonzero"
     fill="#414141"
     fill-opacity="1"
     d="M 44.672763,51.689339 34.333174,42.124612 44.672763,32.559886 55.01235,42.124612 Z m 0,0"
     id="path48"
     style="stroke-width:0.739417" />
  <text
     xml:space="preserve"
     transform="matrix(0.57659036,0,0,0.53338001,-53.991048,-125.38139)"
     id="text529"
     style="font-style:normal;font-variant:normal;font-weight:bold;font-stretch:normal;font-size:109.333px;font-family:Kallisto;-inkscape-font-specification:'Kallisto, Bold';font-variant-ligatures:normal;font-variant-caps:normal;font-variant-numeric:normal;font-variant-east-asian:normal;white-space:pre;shape-inside:url(#rect531);display:inline;fill:#ffffff;stroke:#000000"><tspan
       x="780.16602"
       y="355.02195"
       id="tspan389">Safe</tspan></text>
</svg>
