<?xml version="1.0" encoding="UTF-8" standalone="no"?>
<!-- Generator: Adobe Illustrator 24.0.1, SVG Export Plug-In . SVG Version: 6.00 Build 0)  -->

<svg
   version="1.1"
   x="0px"
   y="0px"
   viewBox="0 0 512 512"
   style="enable-background:new 0 0 512 512;"
   xml:space="preserve"
   id="svg240"
   sodipodi:docname="safari-pinned-tab.svg"
   inkscape:version="1.2.1 (9c6d41e410, 2022-07-14)"
   xmlns:inkscape="http://www.inkscape.org/namespaces/inkscape"
   xmlns:sodipodi="http://sodipodi.sourceforge.net/DTD/sodipodi-0.dtd"
   xmlns="http://www.w3.org/2000/svg"
   xmlns:svg="http://www.w3.org/2000/svg"><defs
   id="defs244"><clipPath
     clipPathUnits="userSpaceOnUse"
     id="clipPath266"><path
       d="M 0,300 H 1000 V 0 H 0 Z"
       id="path264" /></clipPath></defs><sodipodi:namedview
   id="namedview242"
   pagecolor="#ffffff"
   bordercolor="#000000"
   borderopacity="0.25"
   inkscape:showpageshadow="2"
   inkscape:pageopacity="0.0"
   inkscape:pagecheckerboard="0"
   inkscape:deskcolor="#d1d1d1"
   showgrid="false"
   inkscape:zoom="1.6191406"
   inkscape:cx="243.03016"
   inkscape:cy="256"
   inkscape:window-width="1350"
   inkscape:window-height="1032"
   inkscape:window-x="594"
   inkscape:window-y="95"
   inkscape:window-maximized="0"
   inkscape:current-layer="Layer_2" />
<style
   type="text/css"
   id="style229">
	.st0{display:none;}
	.st1{display:inline;}
	.st2{fill:#FFFFFF;}
</style>
<g
   id="Layer_1"
   class="st0">
	<g
   transform="translate(0.000000,512.000000) scale(0.100000,-0.100000)"
   class="st1"
   id="g233">
		<path
   d="M2560,2540V1190l38,19c231,118,489,307,683,500c181,180,265,309,321,488c21,66,21,87,25,881l4,812h-535h-536V2540z"
   id="path231" />
	</g>
</g>
<g
   id="Layer_2">
	<path
   d="M82.4,17.5c-9.2,1.6-13.3,3-21.8,7.1c-9.1,4.5-15,9-22.9,17.3C26.5,53.8,19.5,68.2,17,84.6c-0.7,4.7-1,59.8-0.8,175.9   l0.3,169l2.2,7c3.2,10.3,5.8,16,10.8,23.4c8.8,13.2,22.2,24.3,36.7,30c15.7,6.3,8.7,6.1,189.2,6.1c179.7,0,175,0.1,190-5.9   c23.9-9.6,40.8-28.9,48.3-55.1c1.7-6.2,1.8-14.5,1.8-179s-0.1-172.8-1.8-179c-4.4-15.5-11.1-27.2-21.4-37.2   c-10.6-10.5-21.8-17-36.2-21.1l-7.6-2.2L259,16.3C123.3,16.2,88.1,16.4,82.4,17.5z M82.4,17.5c-9.2,1.6-13.3,3-21.8,7.1   c-9.1,4.5-15,9-22.9,17.3C26.5,53.8,19.5,68.2,17,84.6c-0.7,4.7-1,59.8-0.8,175.9l0.3,169l2.2,7c3.2,10.3,5.8,16,10.8,23.4   c8.8,13.2,22.2,24.3,36.7,30c15.7,6.3,8.7,6.1,189.2,6.1c179.7,0,175,0.1,190-5.9c23.9-9.6,40.8-28.9,48.3-55.1   c1.7-6.2,1.8-14.5,1.8-179s-0.1-172.8-1.8-179c-4.4-15.5-11.1-27.2-21.4-37.2c-10.6-10.5-21.8-17-36.2-21.1l-7.6-2.2L259,16.3   C123.3,16.2,88.1,16.4,82.4,17.5z M402,79.2c1.8,1.3,4.1,3.9,5.1,5.8c1.8,3.3,1.9,7.9,1.9,100c-0.1,86.6-0.4,102.6-2.5,113.1   c-2.6,13.6-15,39.7-25.1,53.4c-8.1,10.9-30.2,33-43.9,44.1c-10.5,8.5-29.6,21.6-39,27c-1.1,0.6-6,3.4-10.8,6.2   c-14.6,8.6-27.2,14.2-31.6,14.2c-10.2,0-53-24.7-81.1-46.9c-14.3-11.2-38.5-35.9-46.2-47.1c-10.2-14.8-17.5-30-22.6-47.5l-2.6-9   l-0.4-101c-0.2-71.9,0-102.1,0.8-104.8c0.7-2.5,2.4-4.7,5.2-6.7l4.1-3H256h142.7L402,79.2z"
   id="path236" />
	
<g
   id="g260"
   transform="matrix(3.4395342,0,0,-3.1310132,-87.858974,725.6513)"><g
     id="g262"
     clip-path="url(#clipPath266)"><g
       id="g268"
       transform="translate(153.6634,181.6808)"><path
         d="m 0,0 -49.387,-49.387 14.11,-14.111 36.816,36.816 c 0,0 8.467,11.545 -1.539,26.682"
         style="fill:#ffffff;fill-opacity:1;fill-rule:nonzero;stroke:none"
         id="path270" /></g><g
       id="g272"
       transform="translate(132.411,167.7287)"><path
         d="m 0,0 -36.816,36.816 c 0,0 -11.545,8.466 -26.682,-1.539 l 49.387,-49.388 z"
         style="fill:#ffffff;fill-opacity:1;fill-rule:nonzero;stroke:none"
         id="path274" /></g><g
       id="g276"
       transform="translate(69.0189,132.2713)"><path
         d="m 0,0 36.816,-36.816 c 0,0 11.545,-8.467 26.682,1.539 L 14.111,14.111 Z"
         style="fill:#ffffff;fill-opacity:1;fill-rule:nonzero;stroke:none"
         id="path278" /></g><g
       id="g280"
       transform="translate(83.1743,181.5325)"><path
         d="m 0,0 -36.816,-36.816 c 0,0 -8.466,-11.545 1.539,-26.682 l 49.388,49.387 z"
         style="fill:#ffffff;fill-opacity:1;fill-rule:nonzero;stroke:none"
         id="path282" /></g><g
       id="g284"
       transform="translate(122.5786,114.7536)"><path
         d="m 0,0 14.111,-14.111 c 9.364,13.983 -0.513,27.709 -0.513,27.709 z"
         style="fill:#ffffff;fill-opacity:1;fill-rule:nonzero;stroke:none"
         id="path286" /></g><g
       id="g288"
       transform="translate(150.1727,185.1697)"><path
         d="m 0,0 c -13.982,9.364 -27.708,-0.513 -27.708,-0.513 l 13.597,-13.598 z"
         style="fill:#ffffff;fill-opacity:1;fill-rule:nonzero;stroke:none"
         id="path290" /></g><g
       id="g292"
       transform="translate(79.3439,185.1981)"><path
         d="m 0,0 -14.111,14.111 c -9.364,-13.983 0.513,-27.709 0.513,-27.709 z"
         style="fill:#ffffff;fill-opacity:1;fill-rule:nonzero;stroke:none"
         id="path294" /></g><g
       id="g296"
       transform="translate(52.0015,114.3403)"><path
         d="M 0,0 C 13.982,-9.364 27.708,0.513 27.708,0.513 L 14.111,14.111 Z"
         style="fill:#ffffff;fill-opacity:1;fill-rule:nonzero;stroke:none"
         id="path298" /></g><g
       id="g300"
       transform="translate(100.7436,136.1037)"><path
         d="M 0,0 13.852,13.852 0,27.703 -13.852,13.852 Z"
         style="fill:#ffffff;fill-opacity:1;fill-rule:nonzero;stroke:none"
         id="path302" /></g></g></g></g>
</svg>
